solid text_HHi_text_scale-8.131_font-NotoSans-VariableFont_wdth_wght
  facet normal 0.000000 1.000000 -0.000000
    outer loop
      vertex 0.774510 0.000000 0.000000
      vertex 0.900560 0.000000 1.000000
      vertex 0.900560 0.000000 0.000000
    endloop
  endfacet
  facet normal 0.000000 1.000000 -0.000000
    outer loop
      vertex 0.900560 0.000000 1.000000
      vertex 0.774510 0.000000 0.577031
      vertex 0.774510 0.000000 1.000000
    endloop
  endfacet
  facet normal 0.000000 1.000000 -0.000000
    outer loop
      vertex 0.261905 0.000000 0.577031
      vertex 0.135854 0.000000 1.000000
      vertex 0.261905 0.000000 1.000000
    endloop
  endfacet
  facet normal 0.000000 1.000000 -0.000000
    outer loop
      vertex 0.135854 0.000000 1.000000
      vertex 0.261905 0.000000 0.000000
      vertex 0.135854 0.000000 0.000000
    endloop
  endfacet
  facet normal 0.000000 1.000000 -0.000000
    outer loop
      vertex 0.774510 0.000000 0.466387
      vertex 0.900560 0.000000 1.000000
      vertex 0.774510 0.000000 0.000000
    endloop
  endfacet
  facet normal 0.000000 1.000000 -0.000000
    outer loop
      vertex 0.135854 0.000000 1.000000
      vertex 0.261905 0.000000 0.466387
      vertex 0.261905 0.000000 0.000000
    endloop
  endfacet
  facet normal 0.000000 1.000000 -0.000000
    outer loop
      vertex 0.774510 0.000000 0.466387
      vertex 0.774510 0.000000 0.577031
      vertex 0.900560 0.000000 1.000000
    endloop
  endfacet
  facet normal 0.000000 1.000000 -0.000000
    outer loop
      vertex 0.261905 0.000000 0.577031
      vertex 0.261905 0.000000 0.466387
      vertex 0.135854 0.000000 1.000000
    endloop
  endfacet
  facet normal 0.000000 1.000000 -0.000000
    outer loop
      vertex 0.261905 0.000000 0.466387
      vertex 0.774510 0.000000 0.577031
      vertex 0.774510 0.000000 0.466387
    endloop
  endfacet
  facet normal 0.000000 1.000000 -0.000000
    outer loop
      vertex 0.774510 0.000000 0.577031
      vertex 0.261905 0.000000 0.466387
      vertex 0.261905 0.000000 0.577031
    endloop
  endfacet
  facet normal 0.000000 -1.000000 0.000000
    outer loop
      vertex 0.900560 -1.000000 1.000000
      vertex 0.774510 -1.000000 0.000000
      vertex 0.900560 -1.000000 0.000000
    endloop
  endfacet
  facet normal 0.000000 -1.000000 0.000000
    outer loop
      vertex 0.774510 -1.000000 0.577031
      vertex 0.900560 -1.000000 1.000000
      vertex 0.774510 -1.000000 1.000000
    endloop
  endfacet
  facet normal 0.000000 -1.000000 0.000000
    outer loop
      vertex 0.135854 -1.000000 1.000000
      vertex 0.261905 -1.000000 0.577031
      vertex 0.261905 -1.000000 1.000000
    endloop
  endfacet
  facet normal 0.000000 -1.000000 0.000000
    outer loop
      vertex 0.261905 -1.000000 0.000000
      vertex 0.135854 -1.000000 1.000000
      vertex 0.135854 -1.000000 0.000000
    endloop
  endfacet
  facet normal 0.000000 -1.000000 0.000000
    outer loop
      vertex 0.900560 -1.000000 1.000000
      vertex 0.774510 -1.000000 0.466387
      vertex 0.774510 -1.000000 0.000000
    endloop
  endfacet
  facet normal -0.000000 -1.000000 0.000000
    outer loop
      vertex 0.261905 -1.000000 0.466387
      vertex 0.135854 -1.000000 1.000000
      vertex 0.261905 -1.000000 0.000000
    endloop
  endfacet
  facet normal 0.000000 -1.000000 0.000000
    outer loop
      vertex 0.774510 -1.000000 0.577031
      vertex 0.774510 -1.000000 0.466387
      vertex 0.900560 -1.000000 1.000000
    endloop
  endfacet
  facet normal -0.000000 -1.000000 -0.000000
    outer loop
      vertex 0.261905 -1.000000 0.466387
      vertex 0.261905 -1.000000 0.577031
      vertex 0.135854 -1.000000 1.000000
    endloop
  endfacet
  facet normal 0.000000 -1.000000 0.000000
    outer loop
      vertex 0.774510 -1.000000 0.577031
      vertex 0.261905 -1.000000 0.466387
      vertex 0.774510 -1.000000 0.466387
    endloop
  endfacet
  facet normal -0.000000 -1.000000 0.000000
    outer loop
      vertex 0.261905 -1.000000 0.466387
      vertex 0.774510 -1.000000 0.577031
      vertex 0.261905 -1.000000 0.577031
    endloop
  endfacet
  facet normal 1.000000 0.000000 -0.000000
    outer loop
      vertex 0.900560 -1.000000 0.000000
      vertex 0.900560 0.000000 0.000000
      vertex 0.900560 0.000000 1.000000
    endloop
  endfacet
  facet normal 1.000000 0.000000 -0.000000
    outer loop
      vertex 0.900560 0.000000 1.000000
      vertex 0.900560 -1.000000 1.000000
      vertex 0.900560 -1.000000 0.000000
    endloop
  endfacet
  facet normal 0.000000 0.000000 1.000000
    outer loop
      vertex 0.900560 -1.000000 1.000000
      vertex 0.900560 0.000000 1.000000
      vertex 0.774510 0.000000 1.000000
    endloop
  endfacet
  facet normal 0.000000 0.000000 1.000000
    outer loop
      vertex 0.774510 0.000000 1.000000
      vertex 0.774510 -1.000000 1.000000
      vertex 0.900560 -1.000000 1.000000
    endloop
  endfacet
  facet normal -1.000000 0.000000 0.000000
    outer loop
      vertex 0.774510 -1.000000 1.000000
      vertex 0.774510 0.000000 1.000000
      vertex 0.774510 0.000000 0.577031
    endloop
  endfacet
  facet normal -1.000000 0.000000 0.000000
    outer loop
      vertex 0.774510 0.000000 0.577031
      vertex 0.774510 -1.000000 0.577031
      vertex 0.774510 -1.000000 1.000000
    endloop
  endfacet
  facet normal 0.000000 0.000000 1.000000
    outer loop
      vertex 0.774510 -1.000000 0.577031
      vertex 0.774510 0.000000 0.577031
      vertex 0.261905 0.000000 0.577031
    endloop
  endfacet
  facet normal 0.000000 0.000000 1.000000
    outer loop
      vertex 0.261905 0.000000 0.577031
      vertex 0.261905 -1.000000 0.577031
      vertex 0.774510 -1.000000 0.577031
    endloop
  endfacet
  facet normal 1.000000 0.000000 -0.000000
    outer loop
      vertex 0.261905 -1.000000 0.577031
      vertex 0.261905 0.000000 0.577031
      vertex 0.261905 0.000000 1.000000
    endloop
  endfacet
  facet normal 1.000000 0.000000 -0.000000
    outer loop
      vertex 0.261905 0.000000 1.000000
      vertex 0.261905 -1.000000 1.000000
      vertex 0.261905 -1.000000 0.577031
    endloop
  endfacet
  facet normal 0.000000 0.000000 1.000000
    outer loop
      vertex 0.261905 -1.000000 1.000000
      vertex 0.261905 0.000000 1.000000
      vertex 0.135854 0.000000 1.000000
    endloop
  endfacet
  facet normal 0.000000 0.000000 1.000000
    outer loop
      vertex 0.135854 0.000000 1.000000
      vertex 0.135854 -1.000000 1.000000
      vertex 0.261905 -1.000000 1.000000
    endloop
  endfacet
  facet normal -1.000000 0.000000 0.000000
    outer loop
      vertex 0.135854 -1.000000 1.000000
      vertex 0.135854 0.000000 1.000000
      vertex 0.135854 0.000000 0.000000
    endloop
  endfacet
  facet normal -1.000000 0.000000 0.000000
    outer loop
      vertex 0.135854 0.000000 0.000000
      vertex 0.135854 -1.000000 0.000000
      vertex 0.135854 -1.000000 1.000000
    endloop
  endfacet
  facet normal 0.000000 -0.000000 -1.000000
    outer loop
      vertex 0.135854 -1.000000 0.000000
      vertex 0.135854 0.000000 0.000000
      vertex 0.261905 0.000000 0.000000
    endloop
  endfacet
  facet normal 0.000000 -0.000000 -1.000000
    outer loop
      vertex 0.261905 0.000000 0.000000
      vertex 0.261905 -1.000000 0.000000
      vertex 0.135854 -1.000000 0.000000
    endloop
  endfacet
  facet normal 1.000000 0.000000 -0.000000
    outer loop
      vertex 0.261905 -1.000000 0.000000
      vertex 0.261905 0.000000 0.000000
      vertex 0.261905 0.000000 0.466387
    endloop
  endfacet
  facet normal 1.000000 0.000000 -0.000000
    outer loop
      vertex 0.261905 0.000000 0.466387
      vertex 0.261905 -1.000000 0.466387
      vertex 0.261905 -1.000000 0.000000
    endloop
  endfacet
  facet normal 0.000000 -0.000000 -1.000000
    outer loop
      vertex 0.261905 -1.000000 0.466387
      vertex 0.261905 0.000000 0.466387
      vertex 0.774510 0.000000 0.466387
    endloop
  endfacet
  facet normal 0.000000 -0.000000 -1.000000
    outer loop
      vertex 0.774510 0.000000 0.466387
      vertex 0.774510 -1.000000 0.466387
      vertex 0.261905 -1.000000 0.466387
    endloop
  endfacet
  facet normal -1.000000 0.000000 0.000000
    outer loop
      vertex 0.774510 -1.000000 0.466387
      vertex 0.774510 0.000000 0.466387
      vertex 0.774510 0.000000 0.000000
    endloop
  endfacet
  facet normal -1.000000 0.000000 0.000000
    outer loop
      vertex 0.774510 0.000000 0.000000
      vertex 0.774510 -1.000000 0.000000
      vertex 0.774510 -1.000000 0.466387
    endloop
  endfacet
  facet normal 0.000000 -0.000000 -1.000000
    outer loop
      vertex 0.774510 -1.000000 0.000000
      vertex 0.774510 0.000000 0.000000
      vertex 0.900560 0.000000 0.000000
    endloop
  endfacet
  facet normal 0.000000 -0.000000 -1.000000
    outer loop
      vertex 0.900560 0.000000 0.000000
      vertex 0.900560 -1.000000 0.000000
      vertex 0.774510 -1.000000 0.000000
    endloop
  endfacet
  facet normal 0.000000 1.000000 -0.000000
    outer loop
      vertex 1.539216 0.000000 0.000000
      vertex 1.665266 0.000000 1.000000
      vertex 1.665266 0.000000 0.000000
    endloop
  endfacet
  facet normal 0.000000 1.000000 -0.000000
    outer loop
      vertex 1.665266 0.000000 1.000000
      vertex 1.539216 0.000000 0.577031
      vertex 1.539216 0.000000 1.000000
    endloop
  endfacet
  facet normal 0.000000 1.000000 -0.000000
    outer loop
      vertex 1.026611 0.000000 0.577031
      vertex 0.900560 0.000000 1.000000
      vertex 1.026611 0.000000 1.000000
    endloop
  endfacet
  facet normal 0.000000 1.000000 -0.000000
    outer loop
      vertex 0.900560 0.000000 1.000000
      vertex 1.026611 0.000000 0.000000
      vertex 0.900560 0.000000 0.000000
    endloop
  endfacet
  facet normal 0.000000 1.000000 -0.000000
    outer loop
      vertex 1.539216 0.000000 0.466387
      vertex 1.665266 0.000000 1.000000
      vertex 1.539216 0.000000 0.000000
    endloop
  endfacet
  facet normal 0.000000 1.000000 -0.000000
    outer loop
      vertex 0.900560 0.000000 1.000000
      vertex 1.026611 0.000000 0.466387
      vertex 1.026611 0.000000 0.000000
    endloop
  endfacet
  facet normal 0.000000 1.000000 -0.000000
    outer loop
      vertex 1.539216 0.000000 0.466387
      vertex 1.539216 0.000000 0.577031
      vertex 1.665266 0.000000 1.000000
    endloop
  endfacet
  facet normal 0.000000 1.000000 -0.000000
    outer loop
      vertex 1.026611 0.000000 0.577031
      vertex 1.026611 0.000000 0.466387
      vertex 0.900560 0.000000 1.000000
    endloop
  endfacet
  facet normal 0.000000 1.000000 -0.000000
    outer loop
      vertex 1.026611 0.000000 0.466387
      vertex 1.539216 0.000000 0.577031
      vertex 1.539216 0.000000 0.466387
    endloop
  endfacet
  facet normal 0.000000 1.000000 -0.000000
    outer loop
      vertex 1.539216 0.000000 0.577031
      vertex 1.026611 0.000000 0.466387
      vertex 1.026611 0.000000 0.577031
    endloop
  endfacet
  facet normal 0.000000 -1.000000 0.000000
    outer loop
      vertex 1.665266 -1.000000 1.000000
      vertex 1.539216 -1.000000 0.000000
      vertex 1.665266 -1.000000 0.000000
    endloop
  endfacet
  facet normal 0.000000 -1.000000 0.000000
    outer loop
      vertex 1.539216 -1.000000 0.577031
      vertex 1.665266 -1.000000 1.000000
      vertex 1.539216 -1.000000 1.000000
    endloop
  endfacet
  facet normal 0.000000 -1.000000 0.000000
    outer loop
      vertex 0.900560 -1.000000 1.000000
      vertex 1.026611 -1.000000 0.577031
      vertex 1.026611 -1.000000 1.000000
    endloop
  endfacet
  facet normal 0.000000 -1.000000 0.000000
    outer loop
      vertex 1.026611 -1.000000 0.000000
      vertex 0.900560 -1.000000 1.000000
      vertex 0.900560 -1.000000 0.000000
    endloop
  endfacet
  facet normal 0.000000 -1.000000 0.000000
    outer loop
      vertex 1.665266 -1.000000 1.000000
      vertex 1.539216 -1.000000 0.466387
      vertex 1.539216 -1.000000 0.000000
    endloop
  endfacet
  facet normal -0.000000 -1.000000 0.000000
    outer loop
      vertex 1.026611 -1.000000 0.466387
      vertex 0.900560 -1.000000 1.000000
      vertex 1.026611 -1.000000 0.000000
    endloop
  endfacet
  facet normal 0.000000 -1.000000 0.000000
    outer loop
      vertex 1.539216 -1.000000 0.577031
      vertex 1.539216 -1.000000 0.466387
      vertex 1.665266 -1.000000 1.000000
    endloop
  endfacet
  facet normal -0.000000 -1.000000 -0.000000
    outer loop
      vertex 1.026611 -1.000000 0.466387
      vertex 1.026611 -1.000000 0.577031
      vertex 0.900560 -1.000000 1.000000
    endloop
  endfacet
  facet normal 0.000000 -1.000000 0.000000
    outer loop
      vertex 1.539216 -1.000000 0.577031
      vertex 1.026611 -1.000000 0.466387
      vertex 1.539216 -1.000000 0.466387
    endloop
  endfacet
  facet normal -0.000000 -1.000000 0.000000
    outer loop
      vertex 1.026611 -1.000000 0.466387
      vertex 1.539216 -1.000000 0.577031
      vertex 1.026611 -1.000000 0.577031
    endloop
  endfacet
  facet normal 1.000000 0.000000 -0.000000
    outer loop
      vertex 1.665266 -1.000000 0.000000
      vertex 1.665266 0.000000 0.000000
      vertex 1.665266 0.000000 1.000000
    endloop
  endfacet
  facet normal 1.000000 0.000000 -0.000000
    outer loop
      vertex 1.665266 0.000000 1.000000
      vertex 1.665266 -1.000000 1.000000
      vertex 1.665266 -1.000000 0.000000
    endloop
  endfacet
  facet normal 0.000000 0.000000 1.000000
    outer loop
      vertex 1.665266 -1.000000 1.000000
      vertex 1.665266 0.000000 1.000000
      vertex 1.539216 0.000000 1.000000
    endloop
  endfacet
  facet normal 0.000000 0.000000 1.000000
    outer loop
      vertex 1.539216 0.000000 1.000000
      vertex 1.539216 -1.000000 1.000000
      vertex 1.665266 -1.000000 1.000000
    endloop
  endfacet
  facet normal -1.000000 0.000000 0.000000
    outer loop
      vertex 1.539216 -1.000000 1.000000
      vertex 1.539216 0.000000 1.000000
      vertex 1.539216 0.000000 0.577031
    endloop
  endfacet
  facet normal -1.000000 0.000000 0.000000
    outer loop
      vertex 1.539216 0.000000 0.577031
      vertex 1.539216 -1.000000 0.577031
      vertex 1.539216 -1.000000 1.000000
    endloop
  endfacet
  facet normal 0.000000 0.000000 1.000000
    outer loop
      vertex 1.539216 -1.000000 0.577031
      vertex 1.539216 0.000000 0.577031
      vertex 1.026611 0.000000 0.577031
    endloop
  endfacet
  facet normal 0.000000 0.000000 1.000000
    outer loop
      vertex 1.026611 0.000000 0.577031
      vertex 1.026611 -1.000000 0.577031
      vertex 1.539216 -1.000000 0.577031
    endloop
  endfacet
  facet normal 1.000000 0.000000 -0.000000
    outer loop
      vertex 1.026611 -1.000000 0.577031
      vertex 1.026611 0.000000 0.577031
      vertex 1.026611 0.000000 1.000000
    endloop
  endfacet
  facet normal 1.000000 0.000000 -0.000000
    outer loop
      vertex 1.026611 0.000000 1.000000
      vertex 1.026611 -1.000000 1.000000
      vertex 1.026611 -1.000000 0.577031
    endloop
  endfacet
  facet normal 0.000000 0.000000 1.000000
    outer loop
      vertex 1.026611 -1.000000 1.000000
      vertex 1.026611 0.000000 1.000000
      vertex 0.900560 0.000000 1.000000
    endloop
  endfacet
  facet normal 0.000000 0.000000 1.000000
    outer loop
      vertex 0.900560 0.000000 1.000000
      vertex 0.900560 -1.000000 1.000000
      vertex 1.026611 -1.000000 1.000000
    endloop
  endfacet
  facet normal -1.000000 0.000000 0.000000
    outer loop
      vertex 0.900560 -1.000000 1.000000
      vertex 0.900560 0.000000 1.000000
      vertex 0.900560 0.000000 0.000000
    endloop
  endfacet
  facet normal -1.000000 0.000000 0.000000
    outer loop
      vertex 0.900560 0.000000 0.000000
      vertex 0.900560 -1.000000 0.000000
      vertex 0.900560 -1.000000 1.000000
    endloop
  endfacet
  facet normal 0.000000 -0.000000 -1.000000
    outer loop
      vertex 0.900560 -1.000000 0.000000
      vertex 0.900560 0.000000 0.000000
      vertex 1.026611 0.000000 0.000000
    endloop
  endfacet
  facet normal 0.000000 -0.000000 -1.000000
    outer loop
      vertex 1.026611 0.000000 0.000000
      vertex 1.026611 -1.000000 0.000000
      vertex 0.900560 -1.000000 0.000000
    endloop
  endfacet
  facet normal 1.000000 0.000000 -0.000000
    outer loop
      vertex 1.026611 -1.000000 0.000000
      vertex 1.026611 0.000000 0.000000
      vertex 1.026611 0.000000 0.466387
    endloop
  endfacet
  facet normal 1.000000 0.000000 -0.000000
    outer loop
      vertex 1.026611 0.000000 0.466387
      vertex 1.026611 -1.000000 0.466387
      vertex 1.026611 -1.000000 0.000000
    endloop
  endfacet
  facet normal 0.000000 -0.000000 -1.000000
    outer loop
      vertex 1.026611 -1.000000 0.466387
      vertex 1.026611 0.000000 0.466387
      vertex 1.539216 0.000000 0.466387
    endloop
  endfacet
  facet normal 0.000000 -0.000000 -1.000000
    outer loop
      vertex 1.539216 0.000000 0.466387
      vertex 1.539216 -1.000000 0.466387
      vertex 1.026611 -1.000000 0.466387
    endloop
  endfacet
  facet normal -1.000000 0.000000 0.000000
    outer loop
      vertex 1.539216 -1.000000 0.466387
      vertex 1.539216 0.000000 0.466387
      vertex 1.539216 0.000000 0.000000
    endloop
  endfacet
  facet normal -1.000000 0.000000 0.000000
    outer loop
      vertex 1.539216 0.000000 0.000000
      vertex 1.539216 -1.000000 0.000000
      vertex 1.539216 -1.000000 0.466387
    endloop
  endfacet
  facet normal 0.000000 -0.000000 -1.000000
    outer loop
      vertex 1.539216 -1.000000 0.000000
      vertex 1.539216 0.000000 0.000000
      vertex 1.665266 0.000000 0.000000
    endloop
  endfacet
  facet normal 0.000000 -0.000000 -1.000000
    outer loop
      vertex 1.665266 0.000000 0.000000
      vertex 1.665266 -1.000000 0.000000
      vertex 1.539216 -1.000000 0.000000
    endloop
  endfacet
  facet normal 0.000000 1.000000 -0.000000
    outer loop
      vertex 1.771709 0.000000 0.000000
      vertex 1.648459 0.000000 0.750700
      vertex 1.771709 0.000000 0.750700
    endloop
  endfacet
  facet normal 0.000000 1.000000 -0.000000
    outer loop
      vertex 1.648459 0.000000 0.750700
      vertex 1.771709 0.000000 0.000000
      vertex 1.648459 0.000000 0.000000
    endloop
  endfacet
  facet normal 0.000000 -1.000000 0.000000
    outer loop
      vertex 1.648459 -1.000000 0.750700
      vertex 1.771709 -1.000000 0.000000
      vertex 1.771709 -1.000000 0.750700
    endloop
  endfacet
  facet normal 0.000000 -1.000000 0.000000
    outer loop
      vertex 1.771709 -1.000000 0.000000
      vertex 1.648459 -1.000000 0.750700
      vertex 1.648459 -1.000000 0.000000
    endloop
  endfacet
  facet normal 0.000000 0.000000 1.000000
    outer loop
      vertex 1.771709 -1.000000 0.750700
      vertex 1.771709 0.000000 0.750700
      vertex 1.648459 0.000000 0.750700
    endloop
  endfacet
  facet normal 0.000000 0.000000 1.000000
    outer loop
      vertex 1.648459 0.000000 0.750700
      vertex 1.648459 -1.000000 0.750700
      vertex 1.771709 -1.000000 0.750700
    endloop
  endfacet
  facet normal -1.000000 0.000000 0.000000
    outer loop
      vertex 1.648459 -1.000000 0.750700
      vertex 1.648459 0.000000 0.750700
      vertex 1.648459 0.000000 0.000000
    endloop
  endfacet
  facet normal -1.000000 0.000000 0.000000
    outer loop
      vertex 1.648459 0.000000 0.000000
      vertex 1.648459 -1.000000 0.000000
      vertex 1.648459 -1.000000 0.750700
    endloop
  endfacet
  facet normal 0.000000 -0.000000 -1.000000
    outer loop
      vertex 1.648459 -1.000000 0.000000
      vertex 1.648459 0.000000 0.000000
      vertex 1.771709 0.000000 0.000000
    endloop
  endfacet
  facet normal 0.000000 -0.000000 -1.000000
    outer loop
      vertex 1.771709 0.000000 0.000000
      vertex 1.771709 -1.000000 0.000000
      vertex 1.648459 -1.000000 0.000000
    endloop
  endfacet
  facet normal 1.000000 0.000000 -0.000000
    outer loop
      vertex 1.771709 -1.000000 0.000000
      vertex 1.771709 0.000000 0.000000
      vertex 1.771709 0.000000 0.750700
    endloop
  endfacet
  facet normal 1.000000 0.000000 -0.000000
    outer loop
      vertex 1.771709 0.000000 0.750700
      vertex 1.771709 -1.000000 0.750700
      vertex 1.771709 -1.000000 0.000000
    endloop
  endfacet
  facet normal 0.000000 1.000000 -0.000000
    outer loop
      vertex 1.718389 0.000000 1.031917
      vertex 1.703935 0.000000 1.031917
      vertex 1.711485 0.000000 1.032213
    endloop
  endfacet
  facet normal 0.000000 1.000000 -0.000000
    outer loop
      vertex 1.703935 0.000000 1.031917
      vertex 1.689754 0.000000 1.029554
      vertex 1.696691 0.000000 1.031031
    endloop
  endfacet
  facet normal -0.000000 1.000000 -0.000000
    outer loop
      vertex 1.689754 0.000000 1.029554
      vertex 1.676799 0.000000 1.024827
      vertex 1.683123 0.000000 1.027486
    endloop
  endfacet
  facet normal -0.000000 1.000000 -0.000000
    outer loop
      vertex 1.676799 0.000000 1.024827
      vertex 1.665069 0.000000 1.017737
      vertex 1.670781 0.000000 1.021577
    endloop
  endfacet
  facet normal 0.000000 1.000000 -0.000000
    outer loop
      vertex 1.665069 0.000000 1.017737
      vertex 1.654740 0.000000 1.008239
      vertex 1.659664 0.000000 1.013305
    endloop
  endfacet
  facet normal 0.000000 1.000000 -0.000000
    outer loop
      vertex 1.654740 0.000000 1.008239
      vertex 1.646862 0.000000 0.996072
      vertex 1.650473 0.000000 1.002495
    endloop
  endfacet
  facet normal -0.000000 1.000000 -0.000000
    outer loop
      vertex 1.646862 0.000000 0.996072
      vertex 1.641610 0.000000 0.981191
      vertex 1.643908 0.000000 0.988971
    endloop
  endfacet
  facet normal 0.000000 1.000000 -0.000000
    outer loop
      vertex 1.641610 0.000000 0.981191
      vertex 1.638984 0.000000 0.963596
      vertex 1.639968 0.000000 0.972733
    endloop
  endfacet
  facet normal 0.000000 1.000000 -0.000000
    outer loop
      vertex 1.638984 0.000000 0.963596
      vertex 1.638984 0.000000 0.944284
      vertex 1.638655 0.000000 0.953782
    endloop
  endfacet
  facet normal -0.000000 1.000000 -0.000000
    outer loop
      vertex 1.638984 0.000000 0.944284
      vertex 1.641610 0.000000 0.927127
      vertex 1.639968 0.000000 0.935399
    endloop
  endfacet
  facet normal -0.000000 1.000000 -0.000000
    outer loop
      vertex 1.641610 0.000000 0.927127
      vertex 1.646862 0.000000 0.912421
      vertex 1.643908 0.000000 0.919468
    endloop
  endfacet
  facet normal 0.000000 1.000000 -0.000000
    outer loop
      vertex 1.646862 0.000000 0.912421
      vertex 1.654740 0.000000 0.900166
      vertex 1.650473 0.000000 0.905987
    endloop
  endfacet
  facet normal 0.000000 1.000000 -0.000000
    outer loop
      vertex 1.654740 0.000000 0.900166
      vertex 1.665069 0.000000 0.890362
      vertex 1.659664 0.000000 0.894958
    endloop
  endfacet
  facet normal 0.000000 1.000000 -0.000000
    outer loop
      vertex 1.665069 0.000000 0.890362
      vertex 1.676799 0.000000 0.883009
      vertex 1.670781 0.000000 0.886380
    endloop
  endfacet
  facet normal 0.000000 1.000000 -0.000000
    outer loop
      vertex 1.676799 0.000000 0.883009
      vertex 1.689754 0.000000 0.878107
      vertex 1.683123 0.000000 0.880252
    endloop
  endfacet
  facet normal 0.000000 1.000000 -0.000000
    outer loop
      vertex 1.689754 0.000000 0.878107
      vertex 1.703935 0.000000 0.875657
      vertex 1.696691 0.000000 0.876576
    endloop
  endfacet
  facet normal 0.000000 1.000000 -0.000000
    outer loop
      vertex 1.703935 0.000000 0.875657
      vertex 1.718389 0.000000 0.875657
      vertex 1.711485 0.000000 0.875350
    endloop
  endfacet
  facet normal -0.000000 1.000000 -0.000000
    outer loop
      vertex 1.718389 0.000000 0.875657
      vertex 1.731607 0.000000 0.878107
      vertex 1.725096 0.000000 0.876576
    endloop
  endfacet
  facet normal 0.000000 1.000000 -0.000000
    outer loop
      vertex 1.731607 0.000000 0.878107
      vertex 1.744037 0.000000 0.883009
      vertex 1.737920 0.000000 0.880252
    endloop
  endfacet
  facet normal -0.000000 1.000000 -0.000000
    outer loop
      vertex 1.744037 0.000000 0.883009
      vertex 1.755679 0.000000 0.890362
      vertex 1.749956 0.000000 0.886380
    endloop
  endfacet
  facet normal 0.000000 1.000000 -0.000000
    outer loop
      vertex 1.755679 0.000000 0.890362
      vertex 1.766292 0.000000 0.900166
      vertex 1.761204 0.000000 0.894958
    endloop
  endfacet
  facet normal 0.000000 1.000000 -0.000000
    outer loop
      vertex 1.766292 0.000000 0.900166
      vertex 1.774433 0.000000 0.912421
      vertex 1.770702 0.000000 0.905987
    endloop
  endfacet
  facet normal 0.000000 1.000000 -0.000000
    outer loop
      vertex 1.774433 0.000000 0.912421
      vertex 1.779860 0.000000 0.927127
      vertex 1.777486 0.000000 0.919468
    endloop
  endfacet
  facet normal 0.000000 1.000000 -0.000000
    outer loop
      vertex 1.779860 0.000000 0.927127
      vertex 1.782574 0.000000 0.944284
      vertex 1.781556 0.000000 0.935399
    endloop
  endfacet
  facet normal -0.000000 1.000000 -0.000000
    outer loop
      vertex 1.782574 0.000000 0.944284
      vertex 1.782574 0.000000 0.963596
      vertex 1.782913 0.000000 0.953782
    endloop
  endfacet
  facet normal 0.000000 1.000000 -0.000000
    outer loop
      vertex 1.782574 0.000000 0.963596
      vertex 1.779860 0.000000 0.981191
      vertex 1.781556 0.000000 0.972733
    endloop
  endfacet
  facet normal 0.000000 1.000000 -0.000000
    outer loop
      vertex 1.779860 0.000000 0.981191
      vertex 1.774433 0.000000 0.996072
      vertex 1.777486 0.000000 0.988971
    endloop
  endfacet
  facet normal -0.000000 1.000000 -0.000000
    outer loop
      vertex 1.774433 0.000000 0.996072
      vertex 1.766292 0.000000 1.008239
      vertex 1.770702 0.000000 1.002495
    endloop
  endfacet
  facet normal -0.000000 1.000000 -0.000000
    outer loop
      vertex 1.766292 0.000000 1.008239
      vertex 1.755679 0.000000 1.017737
      vertex 1.761204 0.000000 1.013305
    endloop
  endfacet
  facet normal 0.000000 1.000000 -0.000000
    outer loop
      vertex 1.755679 0.000000 1.017737
      vertex 1.744037 0.000000 1.024827
      vertex 1.749956 0.000000 1.021577
    endloop
  endfacet
  facet normal 0.000000 1.000000 -0.000000
    outer loop
      vertex 1.744037 0.000000 1.024827
      vertex 1.731607 0.000000 1.029554
      vertex 1.737920 0.000000 1.027486
    endloop
  endfacet
  facet normal -0.000000 1.000000 -0.000000
    outer loop
      vertex 1.731607 0.000000 1.029554
      vertex 1.718389 0.000000 1.031917
      vertex 1.725096 0.000000 1.031031
    endloop
  endfacet
  facet normal 0.000000 1.000000 -0.000000
    outer loop
      vertex 1.718389 0.000000 1.031917
      vertex 1.689754 0.000000 1.029554
      vertex 1.703935 0.000000 1.031917
    endloop
  endfacet
  facet normal 0.000000 1.000000 -0.000000
    outer loop
      vertex 1.689754 0.000000 1.029554
      vertex 1.665069 0.000000 1.017737
      vertex 1.676799 0.000000 1.024827
    endloop
  endfacet
  facet normal -0.000000 1.000000 -0.000000
    outer loop
      vertex 1.665069 0.000000 1.017737
      vertex 1.646862 0.000000 0.996072
      vertex 1.654740 0.000000 1.008239
    endloop
  endfacet
  facet normal -0.000000 1.000000 -0.000000
    outer loop
      vertex 1.646862 0.000000 0.996072
      vertex 1.638984 0.000000 0.963596
      vertex 1.641610 0.000000 0.981191
    endloop
  endfacet
  facet normal -0.000000 1.000000 -0.000000
    outer loop
      vertex 1.638984 0.000000 0.963596
      vertex 1.641610 0.000000 0.927127
      vertex 1.638984 0.000000 0.944284
    endloop
  endfacet
  facet normal -0.000000 1.000000 -0.000000
    outer loop
      vertex 1.641610 0.000000 0.927127
      vertex 1.654740 0.000000 0.900166
      vertex 1.646862 0.000000 0.912421
    endloop
  endfacet
  facet normal 0.000000 1.000000 -0.000000
    outer loop
      vertex 1.654740 0.000000 0.900166
      vertex 1.676799 0.000000 0.883009
      vertex 1.665069 0.000000 0.890362
    endloop
  endfacet
  facet normal -0.000000 1.000000 -0.000000
    outer loop
      vertex 1.676799 0.000000 0.883009
      vertex 1.703935 0.000000 0.875657
      vertex 1.689754 0.000000 0.878107
    endloop
  endfacet
  facet normal 0.000000 1.000000 -0.000000
    outer loop
      vertex 1.703935 0.000000 0.875657
      vertex 1.731607 0.000000 0.878107
      vertex 1.718389 0.000000 0.875657
    endloop
  endfacet
  facet normal 0.000000 1.000000 -0.000000
    outer loop
      vertex 1.731607 0.000000 0.878107
      vertex 1.755679 0.000000 0.890362
      vertex 1.744037 0.000000 0.883009
    endloop
  endfacet
  facet normal -0.000000 1.000000 -0.000000
    outer loop
      vertex 1.755679 0.000000 0.890362
      vertex 1.774433 0.000000 0.912421
      vertex 1.766292 0.000000 0.900166
    endloop
  endfacet
  facet normal 0.000000 1.000000 -0.000000
    outer loop
      vertex 1.774433 0.000000 0.912421
      vertex 1.782574 0.000000 0.944284
      vertex 1.779860 0.000000 0.927127
    endloop
  endfacet
  facet normal -0.000000 1.000000 -0.000000
    outer loop
      vertex 1.782574 0.000000 0.944284
      vertex 1.779860 0.000000 0.981191
      vertex 1.782574 0.000000 0.963596
    endloop
  endfacet
  facet normal -0.000000 1.000000 -0.000000
    outer loop
      vertex 1.779860 0.000000 0.981191
      vertex 1.766292 0.000000 1.008239
      vertex 1.774433 0.000000 0.996072
    endloop
  endfacet
  facet normal 0.000000 1.000000 -0.000000
    outer loop
      vertex 1.766292 0.000000 1.008239
      vertex 1.744037 0.000000 1.024827
      vertex 1.755679 0.000000 1.017737
    endloop
  endfacet
  facet normal -0.000000 1.000000 -0.000000
    outer loop
      vertex 1.744037 0.000000 1.024827
      vertex 1.718389 0.000000 1.031917
      vertex 1.731607 0.000000 1.029554
    endloop
  endfacet
  facet normal 0.000000 1.000000 -0.000000
    outer loop
      vertex 1.718389 0.000000 1.031917
      vertex 1.665069 0.000000 1.017737
      vertex 1.689754 0.000000 1.029554
    endloop
  endfacet
  facet normal 0.000000 1.000000 -0.000000
    outer loop
      vertex 1.665069 0.000000 1.017737
      vertex 1.638984 0.000000 0.963596
      vertex 1.646862 0.000000 0.996072
    endloop
  endfacet
  facet normal -0.000000 1.000000 -0.000000
    outer loop
      vertex 1.638984 0.000000 0.963596
      vertex 1.654740 0.000000 0.900166
      vertex 1.641610 0.000000 0.927127
    endloop
  endfacet
  facet normal 0.000000 1.000000 -0.000000
    outer loop
      vertex 1.654740 0.000000 0.900166
      vertex 1.703935 0.000000 0.875657
      vertex 1.676799 0.000000 0.883009
    endloop
  endfacet
  facet normal -0.000000 1.000000 -0.000000
    outer loop
      vertex 1.703935 0.000000 0.875657
      vertex 1.755679 0.000000 0.890362
      vertex 1.731607 0.000000 0.878107
    endloop
  endfacet
  facet normal -0.000000 1.000000 -0.000000
    outer loop
      vertex 1.755679 0.000000 0.890362
      vertex 1.782574 0.000000 0.944284
      vertex 1.774433 0.000000 0.912421
    endloop
  endfacet
  facet normal -0.000000 1.000000 -0.000000
    outer loop
      vertex 1.782574 0.000000 0.944284
      vertex 1.766292 0.000000 1.008239
      vertex 1.779860 0.000000 0.981191
    endloop
  endfacet
  facet normal -0.000000 1.000000 -0.000000
    outer loop
      vertex 1.766292 0.000000 1.008239
      vertex 1.718389 0.000000 1.031917
      vertex 1.744037 0.000000 1.024827
    endloop
  endfacet
  facet normal -0.000000 1.000000 -0.000000
    outer loop
      vertex 1.718389 0.000000 1.031917
      vertex 1.638984 0.000000 0.963596
      vertex 1.665069 0.000000 1.017737
    endloop
  endfacet
  facet normal -0.000000 1.000000 -0.000000
    outer loop
      vertex 1.638984 0.000000 0.963596
      vertex 1.703935 0.000000 0.875657
      vertex 1.654740 0.000000 0.900166
    endloop
  endfacet
  facet normal 0.000000 1.000000 -0.000000
    outer loop
      vertex 1.703935 0.000000 0.875657
      vertex 1.782574 0.000000 0.944284
      vertex 1.755679 0.000000 0.890362
    endloop
  endfacet
  facet normal 0.000000 1.000000 -0.000000
    outer loop
      vertex 1.782574 0.000000 0.944284
      vertex 1.718389 0.000000 1.031917
      vertex 1.766292 0.000000 1.008239
    endloop
  endfacet
  facet normal 0.000000 1.000000 -0.000000
    outer loop
      vertex 1.718389 0.000000 1.031917
      vertex 1.703935 0.000000 0.875657
      vertex 1.638984 0.000000 0.963596
    endloop
  endfacet
  facet normal -0.000000 1.000000 -0.000000
    outer loop
      vertex 1.703935 0.000000 0.875657
      vertex 1.718389 0.000000 1.031917
      vertex 1.782574 0.000000 0.944284
    endloop
  endfacet
  facet normal 0.000000 -1.000000 0.000000
    outer loop
      vertex 1.703935 -1.000000 1.031917
      vertex 1.718389 -1.000000 1.031917
      vertex 1.711485 -1.000000 1.032213
    endloop
  endfacet
  facet normal 0.000000 -1.000000 0.000000
    outer loop
      vertex 1.689754 -1.000000 1.029554
      vertex 1.703935 -1.000000 1.031917
      vertex 1.696691 -1.000000 1.031031
    endloop
  endfacet
  facet normal 0.000000 -1.000000 0.000000
    outer loop
      vertex 1.676799 -1.000000 1.024827
      vertex 1.689754 -1.000000 1.029554
      vertex 1.683123 -1.000000 1.027486
    endloop
  endfacet
  facet normal 0.000000 -1.000000 0.000000
    outer loop
      vertex 1.665069 -1.000000 1.017737
      vertex 1.676799 -1.000000 1.024827
      vertex 1.670781 -1.000000 1.021577
    endloop
  endfacet
  facet normal 0.000000 -1.000000 0.000000
    outer loop
      vertex 1.654740 -1.000000 1.008239
      vertex 1.665069 -1.000000 1.017737
      vertex 1.659664 -1.000000 1.013305
    endloop
  endfacet
  facet normal 0.000000 -1.000000 0.000000
    outer loop
      vertex 1.646862 -1.000000 0.996072
      vertex 1.654740 -1.000000 1.008239
      vertex 1.650473 -1.000000 1.002495
    endloop
  endfacet
  facet normal 0.000000 -1.000000 0.000000
    outer loop
      vertex 1.641610 -1.000000 0.981191
      vertex 1.646862 -1.000000 0.996072
      vertex 1.643908 -1.000000 0.988971
    endloop
  endfacet
  facet normal 0.000000 -1.000000 0.000000
    outer loop
      vertex 1.638984 -1.000000 0.963596
      vertex 1.641610 -1.000000 0.981191
      vertex 1.639968 -1.000000 0.972733
    endloop
  endfacet
  facet normal 0.000000 -1.000000 -0.000000
    outer loop
      vertex 1.638984 -1.000000 0.944284
      vertex 1.638984 -1.000000 0.963596
      vertex 1.638655 -1.000000 0.953782
    endloop
  endfacet
  facet normal 0.000000 -1.000000 0.000000
    outer loop
      vertex 1.641610 -1.000000 0.927127
      vertex 1.638984 -1.000000 0.944284
      vertex 1.639968 -1.000000 0.935399
    endloop
  endfacet
  facet normal 0.000000 -1.000000 0.000000
    outer loop
      vertex 1.646862 -1.000000 0.912421
      vertex 1.641610 -1.000000 0.927127
      vertex 1.643908 -1.000000 0.919468
    endloop
  endfacet
  facet normal 0.000000 -1.000000 0.000000
    outer loop
      vertex 1.654740 -1.000000 0.900166
      vertex 1.646862 -1.000000 0.912421
      vertex 1.650473 -1.000000 0.905987
    endloop
  endfacet
  facet normal 0.000000 -1.000000 0.000000
    outer loop
      vertex 1.665069 -1.000000 0.890362
      vertex 1.654740 -1.000000 0.900166
      vertex 1.659664 -1.000000 0.894958
    endloop
  endfacet
  facet normal 0.000000 -1.000000 0.000000
    outer loop
      vertex 1.676799 -1.000000 0.883009
      vertex 1.665069 -1.000000 0.890362
      vertex 1.670781 -1.000000 0.886380
    endloop
  endfacet
  facet normal 0.000000 -1.000000 0.000000
    outer loop
      vertex 1.689754 -1.000000 0.878107
      vertex 1.676799 -1.000000 0.883009
      vertex 1.683123 -1.000000 0.880252
    endloop
  endfacet
  facet normal 0.000000 -1.000000 0.000000
    outer loop
      vertex 1.703935 -1.000000 0.875657
      vertex 1.689754 -1.000000 0.878107
      vertex 1.696691 -1.000000 0.876576
    endloop
  endfacet
  facet normal 0.000000 -1.000000 0.000000
    outer loop
      vertex 1.718389 -1.000000 0.875657
      vertex 1.703935 -1.000000 0.875657
      vertex 1.711485 -1.000000 0.875350
    endloop
  endfacet
  facet normal 0.000000 -1.000000 0.000000
    outer loop
      vertex 1.731607 -1.000000 0.878107
      vertex 1.718389 -1.000000 0.875657
      vertex 1.725096 -1.000000 0.876576
    endloop
  endfacet
  facet normal 0.000000 -1.000000 0.000000
    outer loop
      vertex 1.744037 -1.000000 0.883009
      vertex 1.731607 -1.000000 0.878107
      vertex 1.737920 -1.000000 0.880252
    endloop
  endfacet
  facet normal 0.000000 -1.000000 0.000000
    outer loop
      vertex 1.755679 -1.000000 0.890362
      vertex 1.744037 -1.000000 0.883009
      vertex 1.749956 -1.000000 0.886380
    endloop
  endfacet
  facet normal 0.000000 -1.000000 0.000000
    outer loop
      vertex 1.766292 -1.000000 0.900166
      vertex 1.755679 -1.000000 0.890362
      vertex 1.761204 -1.000000 0.894958
    endloop
  endfacet
  facet normal -0.000000 -1.000000 0.000000
    outer loop
      vertex 1.774433 -1.000000 0.912421
      vertex 1.766292 -1.000000 0.900166
      vertex 1.770702 -1.000000 0.905987
    endloop
  endfacet
  facet normal 0.000000 -1.000000 0.000000
    outer loop
      vertex 1.779860 -1.000000 0.927127
      vertex 1.774433 -1.000000 0.912421
      vertex 1.777486 -1.000000 0.919468
    endloop
  endfacet
  facet normal 0.000000 -1.000000 0.000000
    outer loop
      vertex 1.782574 -1.000000 0.944284
      vertex 1.779860 -1.000000 0.927127
      vertex 1.781556 -1.000000 0.935399
    endloop
  endfacet
  facet normal 0.000000 -1.000000 0.000000
    outer loop
      vertex 1.782574 -1.000000 0.963596
      vertex 1.782574 -1.000000 0.944284
      vertex 1.782913 -1.000000 0.953782
    endloop
  endfacet
  facet normal 0.000000 -1.000000 0.000000
    outer loop
      vertex 1.779860 -1.000000 0.981191
      vertex 1.782574 -1.000000 0.963596
      vertex 1.781556 -1.000000 0.972733
    endloop
  endfacet
  facet normal 0.000000 -1.000000 0.000000
    outer loop
      vertex 1.774433 -1.000000 0.996072
      vertex 1.779860 -1.000000 0.981191
      vertex 1.777486 -1.000000 0.988971
    endloop
  endfacet
  facet normal 0.000000 -1.000000 0.000000
    outer loop
      vertex 1.766292 -1.000000 1.008239
      vertex 1.774433 -1.000000 0.996072
      vertex 1.770702 -1.000000 1.002495
    endloop
  endfacet
  facet normal 0.000000 -1.000000 0.000000
    outer loop
      vertex 1.755679 -1.000000 1.017737
      vertex 1.766292 -1.000000 1.008239
      vertex 1.761204 -1.000000 1.013305
    endloop
  endfacet
  facet normal 0.000000 -1.000000 0.000000
    outer loop
      vertex 1.744037 -1.000000 1.024827
      vertex 1.755679 -1.000000 1.017737
      vertex 1.749956 -1.000000 1.021577
    endloop
  endfacet
  facet normal 0.000000 -1.000000 0.000000
    outer loop
      vertex 1.731607 -1.000000 1.029554
      vertex 1.744037 -1.000000 1.024827
      vertex 1.737920 -1.000000 1.027486
    endloop
  endfacet
  facet normal 0.000000 -1.000000 0.000000
    outer loop
      vertex 1.718389 -1.000000 1.031917
      vertex 1.731607 -1.000000 1.029554
      vertex 1.725096 -1.000000 1.031031
    endloop
  endfacet
  facet normal -0.000000 -1.000000 0.000000
    outer loop
      vertex 1.689754 -1.000000 1.029554
      vertex 1.718389 -1.000000 1.031917
      vertex 1.703935 -1.000000 1.031917
    endloop
  endfacet
  facet normal 0.000000 -1.000000 0.000000
    outer loop
      vertex 1.665069 -1.000000 1.017737
      vertex 1.689754 -1.000000 1.029554
      vertex 1.676799 -1.000000 1.024827
    endloop
  endfacet
  facet normal 0.000000 -1.000000 0.000000
    outer loop
      vertex 1.646862 -1.000000 0.996072
      vertex 1.665069 -1.000000 1.017737
      vertex 1.654740 -1.000000 1.008239
    endloop
  endfacet
  facet normal 0.000000 -1.000000 0.000000
    outer loop
      vertex 1.638984 -1.000000 0.963596
      vertex 1.646862 -1.000000 0.996072
      vertex 1.641610 -1.000000 0.981191
    endloop
  endfacet
  facet normal 0.000000 -1.000000 0.000000
    outer loop
      vertex 1.641610 -1.000000 0.927127
      vertex 1.638984 -1.000000 0.963596
      vertex 1.638984 -1.000000 0.944284
    endloop
  endfacet
  facet normal -0.000000 -1.000000 -0.000000
    outer loop
      vertex 1.654740 -1.000000 0.900166
      vertex 1.641610 -1.000000 0.927127
      vertex 1.646862 -1.000000 0.912421
    endloop
  endfacet
  facet normal 0.000000 -1.000000 0.000000
    outer loop
      vertex 1.676799 -1.000000 0.883009
      vertex 1.654740 -1.000000 0.900166
      vertex 1.665069 -1.000000 0.890362
    endloop
  endfacet
  facet normal 0.000000 -1.000000 0.000000
    outer loop
      vertex 1.703935 -1.000000 0.875657
      vertex 1.676799 -1.000000 0.883009
      vertex 1.689754 -1.000000 0.878107
    endloop
  endfacet
  facet normal 0.000000 -1.000000 0.000000
    outer loop
      vertex 1.731607 -1.000000 0.878107
      vertex 1.703935 -1.000000 0.875657
      vertex 1.718389 -1.000000 0.875657
    endloop
  endfacet
  facet normal 0.000000 -1.000000 0.000000
    outer loop
      vertex 1.755679 -1.000000 0.890362
      vertex 1.731607 -1.000000 0.878107
      vertex 1.744037 -1.000000 0.883009
    endloop
  endfacet
  facet normal -0.000000 -1.000000 0.000000
    outer loop
      vertex 1.774433 -1.000000 0.912421
      vertex 1.755679 -1.000000 0.890362
      vertex 1.766292 -1.000000 0.900166
    endloop
  endfacet
  facet normal 0.000000 -1.000000 0.000000
    outer loop
      vertex 1.782574 -1.000000 0.944284
      vertex 1.774433 -1.000000 0.912421
      vertex 1.779860 -1.000000 0.927127
    endloop
  endfacet
  facet normal 0.000000 -1.000000 0.000000
    outer loop
      vertex 1.779860 -1.000000 0.981191
      vertex 1.782574 -1.000000 0.944284
      vertex 1.782574 -1.000000 0.963596
    endloop
  endfacet
  facet normal 0.000000 -1.000000 0.000000
    outer loop
      vertex 1.766292 -1.000000 1.008239
      vertex 1.779860 -1.000000 0.981191
      vertex 1.774433 -1.000000 0.996072
    endloop
  endfacet
  facet normal 0.000000 -1.000000 0.000000
    outer loop
      vertex 1.744037 -1.000000 1.024827
      vertex 1.766292 -1.000000 1.008239
      vertex 1.755679 -1.000000 1.017737
    endloop
  endfacet
  facet normal 0.000000 -1.000000 0.000000
    outer loop
      vertex 1.718389 -1.000000 1.031917
      vertex 1.744037 -1.000000 1.024827
      vertex 1.731607 -1.000000 1.029554
    endloop
  endfacet
  facet normal 0.000000 -1.000000 0.000000
    outer loop
      vertex 1.665069 -1.000000 1.017737
      vertex 1.718389 -1.000000 1.031917
      vertex 1.689754 -1.000000 1.029554
    endloop
  endfacet
  facet normal 0.000000 -1.000000 0.000000
    outer loop
      vertex 1.638984 -1.000000 0.963596
      vertex 1.665069 -1.000000 1.017737
      vertex 1.646862 -1.000000 0.996072
    endloop
  endfacet
  facet normal -0.000000 -1.000000 -0.000000
    outer loop
      vertex 1.654740 -1.000000 0.900166
      vertex 1.638984 -1.000000 0.963596
      vertex 1.641610 -1.000000 0.927127
    endloop
  endfacet
  facet normal 0.000000 -1.000000 0.000000
    outer loop
      vertex 1.703935 -1.000000 0.875657
      vertex 1.654740 -1.000000 0.900166
      vertex 1.676799 -1.000000 0.883009
    endloop
  endfacet
  facet normal 0.000000 -1.000000 0.000000
    outer loop
      vertex 1.755679 -1.000000 0.890362
      vertex 1.703935 -1.000000 0.875657
      vertex 1.731607 -1.000000 0.878107
    endloop
  endfacet
  facet normal 0.000000 -1.000000 -0.000000
    outer loop
      vertex 1.782574 -1.000000 0.944284
      vertex 1.755679 -1.000000 0.890362
      vertex 1.774433 -1.000000 0.912421
    endloop
  endfacet
  facet normal 0.000000 -1.000000 0.000000
    outer loop
      vertex 1.766292 -1.000000 1.008239
      vertex 1.782574 -1.000000 0.944284
      vertex 1.779860 -1.000000 0.981191
    endloop
  endfacet
  facet normal 0.000000 -1.000000 0.000000
    outer loop
      vertex 1.718389 -1.000000 1.031917
      vertex 1.766292 -1.000000 1.008239
      vertex 1.744037 -1.000000 1.024827
    endloop
  endfacet
  facet normal 0.000000 -1.000000 0.000000
    outer loop
      vertex 1.638984 -1.000000 0.963596
      vertex 1.718389 -1.000000 1.031917
      vertex 1.665069 -1.000000 1.017737
    endloop
  endfacet
  facet normal 0.000000 -1.000000 0.000000
    outer loop
      vertex 1.703935 -1.000000 0.875657
      vertex 1.638984 -1.000000 0.963596
      vertex 1.654740 -1.000000 0.900166
    endloop
  endfacet
  facet normal -0.000000 -1.000000 0.000000
    outer loop
      vertex 1.782574 -1.000000 0.944284
      vertex 1.703935 -1.000000 0.875657
      vertex 1.755679 -1.000000 0.890362
    endloop
  endfacet
  facet normal 0.000000 -1.000000 0.000000
    outer loop
      vertex 1.718389 -1.000000 1.031917
      vertex 1.782574 -1.000000 0.944284
      vertex 1.766292 -1.000000 1.008239
    endloop
  endfacet
  facet normal -0.000000 -1.000000 0.000000
    outer loop
      vertex 1.703935 -1.000000 0.875657
      vertex 1.718389 -1.000000 1.031917
      vertex 1.638984 -1.000000 0.963596
    endloop
  endfacet
  facet normal 0.000000 -1.000000 0.000000
    outer loop
      vertex 1.718389 -1.000000 1.031917
      vertex 1.703935 -1.000000 0.875657
      vertex 1.782574 -1.000000 0.944284
    endloop
  endfacet
  facet normal -0.039101 0.000000 0.999235
    outer loop
      vertex 1.711485 -1.000000 1.032213
      vertex 1.711485 0.000000 1.032213
      vertex 1.703935 0.000000 1.031917
    endloop
  endfacet
  facet normal -0.039101 0.000000 0.999235
    outer loop
      vertex 1.703935 0.000000 1.031917
      vertex 1.703935 -1.000000 1.031917
      vertex 1.711485 -1.000000 1.032213
    endloop
  endfacet
  facet normal -0.121451 0.000000 0.992597
    outer loop
      vertex 1.703935 -1.000000 1.031917
      vertex 1.703935 0.000000 1.031917
      vertex 1.696691 0.000000 1.031031
    endloop
  endfacet
  facet normal -0.121451 0.000000 0.992597
    outer loop
      vertex 1.696691 0.000000 1.031031
      vertex 1.696691 -1.000000 1.031031
      vertex 1.703935 -1.000000 1.031917
    endloop
  endfacet
  facet normal -0.208265 0.000000 0.978073
    outer loop
      vertex 1.696691 -1.000000 1.031031
      vertex 1.696691 0.000000 1.031031
      vertex 1.689754 0.000000 1.029554
    endloop
  endfacet
  facet normal -0.208265 0.000000 0.978073
    outer loop
      vertex 1.689754 0.000000 1.029554
      vertex 1.689754 -1.000000 1.029554
      vertex 1.696691 -1.000000 1.031031
    endloop
  endfacet
  facet normal -0.297737 0.000000 0.954648
    outer loop
      vertex 1.689754 -1.000000 1.029554
      vertex 1.689754 0.000000 1.029554
      vertex 1.683123 0.000000 1.027486
    endloop
  endfacet
  facet normal -0.297737 0.000000 0.954648
    outer loop
      vertex 1.683123 0.000000 1.027486
      vertex 1.683123 -1.000000 1.027486
      vertex 1.689754 -1.000000 1.029554
    endloop
  endfacet
  facet normal -0.387558 0.000000 0.921845
    outer loop
      vertex 1.683123 -1.000000 1.027486
      vertex 1.683123 0.000000 1.027486
      vertex 1.676799 0.000000 1.024827
    endloop
  endfacet
  facet normal -0.387558 0.000000 0.921845
    outer loop
      vertex 1.676799 0.000000 1.024827
      vertex 1.676799 -1.000000 1.024827
      vertex 1.683123 -1.000000 1.027486
    endloop
  endfacet
  facet normal -0.475149 0.000000 0.879905
    outer loop
      vertex 1.676799 -1.000000 1.024827
      vertex 1.676799 0.000000 1.024827
      vertex 1.670781 0.000000 1.021577
    endloop
  endfacet
  facet normal -0.475149 0.000000 0.879905
    outer loop
      vertex 1.670781 0.000000 1.021577
      vertex 1.670781 -1.000000 1.021577
      vertex 1.676799 -1.000000 1.024827
    endloop
  endfacet
  facet normal -0.557998 0.000000 0.829843
    outer loop
      vertex 1.670781 -1.000000 1.021577
      vertex 1.670781 0.000000 1.021577
      vertex 1.665069 0.000000 1.017737
    endloop
  endfacet
  facet normal -0.557998 0.000000 0.829843
    outer loop
      vertex 1.665069 0.000000 1.017737
      vertex 1.665069 -1.000000 1.017737
      vertex 1.670781 -1.000000 1.021577
    endloop
  endfacet
  facet normal -0.634005 0.000000 0.773329
    outer loop
      vertex 1.665069 -1.000000 1.017737
      vertex 1.665069 0.000000 1.017737
      vertex 1.659664 0.000000 1.013305
    endloop
  endfacet
  facet normal -0.634005 0.000000 0.773329
    outer loop
      vertex 1.659664 0.000000 1.013305
      vertex 1.659664 -1.000000 1.013305
      vertex 1.665069 -1.000000 1.017737
    endloop
  endfacet
  facet normal -0.717102 0.000000 0.696968
    outer loop
      vertex 1.659664 -1.000000 1.013305
      vertex 1.659664 0.000000 1.013305
      vertex 1.654740 0.000000 1.008239
    endloop
  endfacet
  facet normal -0.717102 0.000000 0.696968
    outer loop
      vertex 1.654740 0.000000 1.008239
      vertex 1.654740 -1.000000 1.008239
      vertex 1.659664 -1.000000 1.013305
    endloop
  endfacet
  facet normal -0.802744 0.000000 0.596324
    outer loop
      vertex 1.654740 -1.000000 1.008239
      vertex 1.654740 0.000000 1.008239
      vertex 1.650473 0.000000 1.002495
    endloop
  endfacet
  facet normal -0.802744 0.000000 0.596324
    outer loop
      vertex 1.650473 0.000000 1.002495
      vertex 1.650473 -1.000000 1.002495
      vertex 1.654740 -1.000000 1.008239
    endloop
  endfacet
  facet normal -0.871694 0.000000 0.490050
    outer loop
      vertex 1.650473 -1.000000 1.002495
      vertex 1.650473 0.000000 1.002495
      vertex 1.646862 0.000000 0.996072
    endloop
  endfacet
  facet normal -0.871694 0.000000 0.490050
    outer loop
      vertex 1.646862 0.000000 0.996072
      vertex 1.646862 -1.000000 0.996072
      vertex 1.650473 -1.000000 1.002495
    endloop
  endfacet
  facet normal -0.923287 0.000000 0.384110
    outer loop
      vertex 1.646862 -1.000000 0.996072
      vertex 1.646862 0.000000 0.996072
      vertex 1.643908 0.000000 0.988971
    endloop
  endfacet
  facet normal -0.923287 0.000000 0.384110
    outer loop
      vertex 1.643908 0.000000 0.988971
      vertex 1.643908 -1.000000 0.988971
      vertex 1.646862 -1.000000 0.996072
    endloop
  endfacet
  facet normal -0.959043 0.000000 0.283262
    outer loop
      vertex 1.643908 -1.000000 0.988971
      vertex 1.643908 0.000000 0.988971
      vertex 1.641610 0.000000 0.981191
    endloop
  endfacet
  facet normal -0.959043 0.000000 0.283262
    outer loop
      vertex 1.641610 0.000000 0.981191
      vertex 1.641610 -1.000000 0.981191
      vertex 1.643908 -1.000000 0.988971
    endloop
  endfacet
  facet normal -0.981688 0.000000 0.190496
    outer loop
      vertex 1.641610 -1.000000 0.981191
      vertex 1.641610 0.000000 0.981191
      vertex 1.639968 0.000000 0.972733
    endloop
  endfacet
  facet normal -0.981688 0.000000 0.190496
    outer loop
      vertex 1.639968 0.000000 0.972733
      vertex 1.639968 -1.000000 0.972733
      vertex 1.641610 -1.000000 0.981191
    endloop
  endfacet
  facet normal -0.994241 0.000000 0.107164
    outer loop
      vertex 1.639968 -1.000000 0.972733
      vertex 1.639968 0.000000 0.972733
      vertex 1.638984 0.000000 0.963596
    endloop
  endfacet
  facet normal -0.994241 0.000000 0.107164
    outer loop
      vertex 1.638984 0.000000 0.963596
      vertex 1.638984 -1.000000 0.963596
      vertex 1.639968 -1.000000 0.972733
    endloop
  endfacet
  facet normal -0.999441 0.000000 0.033426
    outer loop
      vertex 1.638984 -1.000000 0.963596
      vertex 1.638984 0.000000 0.963596
      vertex 1.638655 0.000000 0.953782
    endloop
  endfacet
  facet normal -0.999441 0.000000 0.033426
    outer loop
      vertex 1.638655 0.000000 0.953782
      vertex 1.638655 -1.000000 0.953782
      vertex 1.638984 -1.000000 0.963596
    endloop
  endfacet
  facet normal -0.999403 -0.000000 -0.034542
    outer loop
      vertex 1.638655 -1.000000 0.953782
      vertex 1.638655 0.000000 0.953782
      vertex 1.638984 0.000000 0.944284
    endloop
  endfacet
  facet normal -0.999403 -0.000000 -0.034542
    outer loop
      vertex 1.638984 0.000000 0.944284
      vertex 1.638984 -1.000000 0.944284
      vertex 1.638655 -1.000000 0.953782
    endloop
  endfacet
  facet normal -0.993914 -0.000000 -0.110163
    outer loop
      vertex 1.638984 -1.000000 0.944284
      vertex 1.638984 0.000000 0.944284
      vertex 1.639968 0.000000 0.935399
    endloop
  endfacet
  facet normal -0.993914 -0.000000 -0.110163
    outer loop
      vertex 1.639968 0.000000 0.935399
      vertex 1.639968 -1.000000 0.935399
      vertex 1.638984 -1.000000 0.944284
    endloop
  endfacet
  facet normal -0.980879 -0.000000 -0.194619
    outer loop
      vertex 1.639968 -1.000000 0.935399
      vertex 1.639968 0.000000 0.935399
      vertex 1.641610 0.000000 0.927127
    endloop
  endfacet
  facet normal -0.980879 -0.000000 -0.194619
    outer loop
      vertex 1.641610 0.000000 0.927127
      vertex 1.641610 -1.000000 0.927127
      vertex 1.639968 -1.000000 0.935399
    endloop
  endfacet
  facet normal -0.957826 -0.000000 -0.287348
    outer loop
      vertex 1.641610 -1.000000 0.927127
      vertex 1.641610 0.000000 0.927127
      vertex 1.643908 0.000000 0.919468
    endloop
  endfacet
  facet normal -0.957826 -0.000000 -0.287348
    outer loop
      vertex 1.643908 0.000000 0.919468
      vertex 1.643908 -1.000000 0.919468
      vertex 1.641610 -1.000000 0.927127
    endloop
  endfacet
  facet normal -0.922227 -0.000000 -0.386648
    outer loop
      vertex 1.643908 -1.000000 0.919468
      vertex 1.643908 0.000000 0.919468
      vertex 1.646862 0.000000 0.912421
    endloop
  endfacet
  facet normal -0.922227 -0.000000 -0.386648
    outer loop
      vertex 1.646862 0.000000 0.912421
      vertex 1.646862 -1.000000 0.912421
      vertex 1.643908 -1.000000 0.919468
    endloop
  endfacet
  facet normal -0.872050 -0.000000 -0.489416
    outer loop
      vertex 1.646862 -1.000000 0.912421
      vertex 1.646862 0.000000 0.912421
      vertex 1.650473 0.000000 0.905987
    endloop
  endfacet
  facet normal -0.872050 -0.000000 -0.489416
    outer loop
      vertex 1.650473 0.000000 0.905987
      vertex 1.650473 -1.000000 0.905987
      vertex 1.646862 -1.000000 0.912421
    endloop
  endfacet
  facet normal -0.806501 -0.000000 -0.591232
    outer loop
      vertex 1.650473 -1.000000 0.905987
      vertex 1.650473 0.000000 0.905987
      vertex 1.654740 0.000000 0.900166
    endloop
  endfacet
  facet normal -0.806501 -0.000000 -0.591232
    outer loop
      vertex 1.654740 0.000000 0.900166
      vertex 1.654740 -1.000000 0.900166
      vertex 1.650473 -1.000000 0.905987
    endloop
  endfacet
  facet normal -0.726674 -0.000000 -0.686982
    outer loop
      vertex 1.654740 -1.000000 0.900166
      vertex 1.654740 0.000000 0.900166
      vertex 1.659664 0.000000 0.894958
    endloop
  endfacet
  facet normal -0.726674 -0.000000 -0.686982
    outer loop
      vertex 1.659664 0.000000 0.894958
      vertex 1.659664 -1.000000 0.894958
      vertex 1.654740 -1.000000 0.900166
    endloop
  endfacet
  facet normal -0.647738 -0.000000 -0.761863
    outer loop
      vertex 1.659664 -1.000000 0.894958
      vertex 1.659664 0.000000 0.894958
      vertex 1.665069 0.000000 0.890362
    endloop
  endfacet
  facet normal -0.647738 -0.000000 -0.761863
    outer loop
      vertex 1.665069 0.000000 0.890362
      vertex 1.665069 -1.000000 0.890362
      vertex 1.659664 -1.000000 0.894958
    endloop
  endfacet
  facet normal -0.571985 -0.000000 -0.820264
    outer loop
      vertex 1.665069 -1.000000 0.890362
      vertex 1.665069 0.000000 0.890362
      vertex 1.670781 0.000000 0.886380
    endloop
  endfacet
  facet normal -0.571985 -0.000000 -0.820264
    outer loop
      vertex 1.670781 0.000000 0.886380
      vertex 1.670781 -1.000000 0.886380
      vertex 1.665069 -1.000000 0.890362
    endloop
  endfacet
  facet normal -0.488603 -0.000000 -0.872506
    outer loop
      vertex 1.670781 -1.000000 0.886380
      vertex 1.670781 0.000000 0.886380
      vertex 1.676799 0.000000 0.883009
    endloop
  endfacet
  facet normal -0.488603 -0.000000 -0.872506
    outer loop
      vertex 1.676799 0.000000 0.883009
      vertex 1.676799 -1.000000 0.883009
      vertex 1.670781 -1.000000 0.886380
    endloop
  endfacet
  facet normal -0.399654 -0.000000 -0.916666
    outer loop
      vertex 1.676799 -1.000000 0.883009
      vertex 1.676799 0.000000 0.883009
      vertex 1.683123 0.000000 0.880252
    endloop
  endfacet
  facet normal -0.399654 -0.000000 -0.916666
    outer loop
      vertex 1.683123 0.000000 0.880252
      vertex 1.683123 -1.000000 0.880252
      vertex 1.676799 -1.000000 0.883009
    endloop
  endfacet
  facet normal -0.307737 -0.000000 -0.951472
    outer loop
      vertex 1.683123 -1.000000 0.880252
      vertex 1.683123 0.000000 0.880252
      vertex 1.689754 0.000000 0.878107
    endloop
  endfacet
  facet normal -0.307737 -0.000000 -0.951472
    outer loop
      vertex 1.689754 0.000000 0.878107
      vertex 1.689754 -1.000000 0.878107
      vertex 1.683123 -1.000000 0.880252
    endloop
  endfacet
  facet normal -0.215626 -0.000000 -0.976476
    outer loop
      vertex 1.689754 -1.000000 0.878107
      vertex 1.689754 0.000000 0.878107
      vertex 1.696691 0.000000 0.876576
    endloop
  endfacet
  facet normal -0.215626 -0.000000 -0.976476
    outer loop
      vertex 1.696691 0.000000 0.876576
      vertex 1.696691 -1.000000 0.876576
      vertex 1.689754 -1.000000 0.878107
    endloop
  endfacet
  facet normal -0.125879 -0.000000 -0.992046
    outer loop
      vertex 1.696691 -1.000000 0.876576
      vertex 1.696691 0.000000 0.876576
      vertex 1.703935 0.000000 0.875657
    endloop
  endfacet
  facet normal -0.125879 -0.000000 -0.992046
    outer loop
      vertex 1.703935 0.000000 0.875657
      vertex 1.703935 -1.000000 0.875657
      vertex 1.696691 -1.000000 0.876576
    endloop
  endfacet
  facet normal -0.040546 -0.000000 -0.999178
    outer loop
      vertex 1.703935 -1.000000 0.875657
      vertex 1.703935 0.000000 0.875657
      vertex 1.711485 0.000000 0.875350
    endloop
  endfacet
  facet normal -0.040546 -0.000000 -0.999178
    outer loop
      vertex 1.711485 0.000000 0.875350
      vertex 1.711485 -1.000000 0.875350
      vertex 1.703935 -1.000000 0.875657
    endloop
  endfacet
  facet normal 0.044330 -0.000000 -0.999017
    outer loop
      vertex 1.711485 -1.000000 0.875350
      vertex 1.711485 0.000000 0.875350
      vertex 1.718389 0.000000 0.875657
    endloop
  endfacet
  facet normal 0.044330 -0.000000 -0.999017
    outer loop
      vertex 1.718389 0.000000 0.875657
      vertex 1.718389 -1.000000 0.875657
      vertex 1.711485 -1.000000 0.875350
    endloop
  endfacet
  facet normal 0.135762 -0.000000 -0.990741
    outer loop
      vertex 1.718389 -1.000000 0.875657
      vertex 1.718389 0.000000 0.875657
      vertex 1.725096 0.000000 0.876576
    endloop
  endfacet
  facet normal 0.135762 -0.000000 -0.990741
    outer loop
      vertex 1.725096 0.000000 0.876576
      vertex 1.725096 -1.000000 0.876576
      vertex 1.718389 -1.000000 0.875657
    endloop
  endfacet
  facet normal 0.229039 -0.000000 -0.973417
    outer loop
      vertex 1.725096 -1.000000 0.876576
      vertex 1.725096 0.000000 0.876576
      vertex 1.731607 0.000000 0.878107
    endloop
  endfacet
  facet normal 0.229039 -0.000000 -0.973417
    outer loop
      vertex 1.731607 0.000000 0.878107
      vertex 1.731607 -1.000000 0.878107
      vertex 1.725096 -1.000000 0.876576
    endloop
  endfacet
  facet normal 0.321638 -0.000000 -0.946863
    outer loop
      vertex 1.731607 -1.000000 0.878107
      vertex 1.731607 0.000000 0.878107
      vertex 1.737920 0.000000 0.880252
    endloop
  endfacet
  facet normal 0.321638 -0.000000 -0.946863
    outer loop
      vertex 1.737920 0.000000 0.880252
      vertex 1.737920 -1.000000 0.880252
      vertex 1.731607 -1.000000 0.878107
    endloop
  endfacet
  facet normal 0.410975 -0.000000 -0.911647
    outer loop
      vertex 1.737920 -1.000000 0.880252
      vertex 1.737920 0.000000 0.880252
      vertex 1.744037 0.000000 0.883009
    endloop
  endfacet
  facet normal 0.410975 -0.000000 -0.911647
    outer loop
      vertex 1.744037 0.000000 0.883009
      vertex 1.744037 -1.000000 0.883009
      vertex 1.737920 -1.000000 0.880252
    endloop
  endfacet
  facet normal 0.494754 -0.000000 -0.869033
    outer loop
      vertex 1.744037 -1.000000 0.883009
      vertex 1.744037 0.000000 0.883009
      vertex 1.749956 0.000000 0.886380
    endloop
  endfacet
  facet normal 0.494754 -0.000000 -0.869033
    outer loop
      vertex 1.749956 0.000000 0.886380
      vertex 1.749956 -1.000000 0.886380
      vertex 1.744037 -1.000000 0.883009
    endloop
  endfacet
  facet normal 0.571248 -0.000000 -0.820777
    outer loop
      vertex 1.749956 -1.000000 0.886380
      vertex 1.749956 0.000000 0.886380
      vertex 1.755679 0.000000 0.890362
    endloop
  endfacet
  facet normal 0.571248 -0.000000 -0.820777
    outer loop
      vertex 1.755679 0.000000 0.890362
      vertex 1.755679 -1.000000 0.890362
      vertex 1.749956 -1.000000 0.886380
    endloop
  endfacet
  facet normal 0.639435 -0.000000 -0.768845
    outer loop
      vertex 1.755679 -1.000000 0.890362
      vertex 1.755679 0.000000 0.890362
      vertex 1.761204 0.000000 0.894958
    endloop
  endfacet
  facet normal 0.639435 -0.000000 -0.768845
    outer loop
      vertex 1.761204 0.000000 0.894958
      vertex 1.761204 -1.000000 0.894958
      vertex 1.755679 -1.000000 0.890362
    endloop
  endfacet
  facet normal 0.715324 -0.000000 -0.698793
    outer loop
      vertex 1.761204 -1.000000 0.894958
      vertex 1.761204 0.000000 0.894958
      vertex 1.766292 0.000000 0.900166
    endloop
  endfacet
  facet normal 0.715324 -0.000000 -0.698793
    outer loop
      vertex 1.766292 0.000000 0.900166
      vertex 1.766292 -1.000000 0.900166
      vertex 1.761204 -1.000000 0.894958
    endloop
  endfacet
  facet normal 0.797114 -0.000000 -0.603829
    outer loop
      vertex 1.766292 -1.000000 0.900166
      vertex 1.766292 0.000000 0.900166
      vertex 1.770702 0.000000 0.905987
    endloop
  endfacet
  facet normal 0.797114 -0.000000 -0.603829
    outer loop
      vertex 1.770702 0.000000 0.905987
      vertex 1.770702 -1.000000 0.905987
      vertex 1.766292 -1.000000 0.900166
    endloop
  endfacet
  facet normal 0.865057 -0.000000 -0.501674
    outer loop
      vertex 1.770702 -1.000000 0.905987
      vertex 1.770702 0.000000 0.905987
      vertex 1.774433 0.000000 0.912421
    endloop
  endfacet
  facet normal 0.865057 -0.000000 -0.501674
    outer loop
      vertex 1.774433 0.000000 0.912421
      vertex 1.774433 -1.000000 0.912421
      vertex 1.770702 -1.000000 0.905987
    endloop
  endfacet
  facet normal 0.917590 -0.000000 -0.397527
    outer loop
      vertex 1.774433 -1.000000 0.912421
      vertex 1.774433 0.000000 0.912421
      vertex 1.777486 0.000000 0.919468
    endloop
  endfacet
  facet normal 0.917590 -0.000000 -0.397527
    outer loop
      vertex 1.777486 0.000000 0.919468
      vertex 1.777486 -1.000000 0.919468
      vertex 1.774433 -1.000000 0.912421
    endloop
  endfacet
  facet normal 0.955157 -0.000000 -0.296099
    outer loop
      vertex 1.777486 -1.000000 0.919468
      vertex 1.777486 0.000000 0.919468
      vertex 1.779860 0.000000 0.927127
    endloop
  endfacet
  facet normal 0.955157 -0.000000 -0.296099
    outer loop
      vertex 1.779860 0.000000 0.927127
      vertex 1.779860 -1.000000 0.927127
      vertex 1.777486 -1.000000 0.919468
    endloop
  endfacet
  facet normal 0.979622 -0.000000 -0.200848
    outer loop
      vertex 1.779860 -1.000000 0.927127
      vertex 1.779860 0.000000 0.927127
      vertex 1.781556 0.000000 0.935399
    endloop
  endfacet
  facet normal 0.979622 -0.000000 -0.200848
    outer loop
      vertex 1.781556 0.000000 0.935399
      vertex 1.781556 -1.000000 0.935399
      vertex 1.779860 -1.000000 0.927127
    endloop
  endfacet
  facet normal 0.993505 -0.000000 -0.113788
    outer loop
      vertex 1.781556 -1.000000 0.935399
      vertex 1.781556 0.000000 0.935399
      vertex 1.782574 0.000000 0.944284
    endloop
  endfacet
  facet normal 0.993505 -0.000000 -0.113788
    outer loop
      vertex 1.782574 0.000000 0.944284
      vertex 1.782574 -1.000000 0.944284
      vertex 1.781556 -1.000000 0.935399
    endloop
  endfacet
  facet normal 0.999363 -0.000000 -0.035692
    outer loop
      vertex 1.782574 -1.000000 0.944284
      vertex 1.782574 0.000000 0.944284
      vertex 1.782913 0.000000 0.953782
    endloop
  endfacet
  facet normal 0.999363 -0.000000 -0.035692
    outer loop
      vertex 1.782913 0.000000 0.953782
      vertex 1.782913 -1.000000 0.953782
      vertex 1.782574 -1.000000 0.944284
    endloop
  endfacet
  facet normal 0.999403 0.000000 0.034539
    outer loop
      vertex 1.782913 -1.000000 0.953782
      vertex 1.782913 0.000000 0.953782
      vertex 1.782574 0.000000 0.963596
    endloop
  endfacet
  facet normal 0.999403 0.000000 0.034539
    outer loop
      vertex 1.782574 0.000000 0.963596
      vertex 1.782574 -1.000000 0.963596
      vertex 1.782913 -1.000000 0.953782
    endloop
  endfacet
  facet normal 0.993855 0.000000 0.110693
    outer loop
      vertex 1.782574 -1.000000 0.963596
      vertex 1.782574 0.000000 0.963596
      vertex 1.781556 0.000000 0.972733
    endloop
  endfacet
  facet normal 0.993855 0.000000 0.110693
    outer loop
      vertex 1.781556 0.000000 0.972733
      vertex 1.781556 -1.000000 0.972733
      vertex 1.782574 -1.000000 0.963596
    endloop
  endfacet
  facet normal 0.980483 0.000000 0.196604
    outer loop
      vertex 1.781556 -1.000000 0.972733
      vertex 1.781556 0.000000 0.972733
      vertex 1.779860 0.000000 0.981191
    endloop
  endfacet
  facet normal 0.980483 0.000000 0.196604
    outer loop
      vertex 1.779860 0.000000 0.981191
      vertex 1.779860 -1.000000 0.981191
      vertex 1.781556 -1.000000 0.972733
    endloop
  endfacet
  facet normal 0.956446 0.000000 0.291911
    outer loop
      vertex 1.779860 -1.000000 0.981191
      vertex 1.779860 0.000000 0.981191
      vertex 1.777486 0.000000 0.988971
    endloop
  endfacet
  facet normal 0.956446 0.000000 0.291911
    outer loop
      vertex 1.777486 0.000000 0.988971
      vertex 1.777486 -1.000000 0.988971
      vertex 1.779860 -1.000000 0.981191
    endloop
  endfacet
  facet normal 0.918705 0.000000 0.394944
    outer loop
      vertex 1.777486 -1.000000 0.988971
      vertex 1.777486 0.000000 0.988971
      vertex 1.774433 0.000000 0.996072
    endloop
  endfacet
  facet normal 0.918705 0.000000 0.394944
    outer loop
      vertex 1.774433 0.000000 0.996072
      vertex 1.774433 -1.000000 0.996072
      vertex 1.777486 -1.000000 0.988971
    endloop
  endfacet
  facet normal 0.864686 0.000000 0.502313
    outer loop
      vertex 1.774433 -1.000000 0.996072
      vertex 1.774433 0.000000 0.996072
      vertex 1.770702 0.000000 1.002495
    endloop
  endfacet
  facet normal 0.864686 0.000000 0.502313
    outer loop
      vertex 1.770702 0.000000 1.002495
      vertex 1.770702 -1.000000 1.002495
      vertex 1.774433 -1.000000 0.996072
    endloop
  endfacet
  facet normal 0.793241 0.000000 0.608907
    outer loop
      vertex 1.770702 -1.000000 1.002495
      vertex 1.770702 0.000000 1.002495
      vertex 1.766292 0.000000 1.008239
    endloop
  endfacet
  facet normal 0.793241 0.000000 0.608907
    outer loop
      vertex 1.766292 0.000000 1.008239
      vertex 1.766292 -1.000000 1.008239
      vertex 1.770702 -1.000000 1.002495
    endloop
  endfacet
  facet normal 0.705581 0.000000 0.708629
    outer loop
      vertex 1.766292 -1.000000 1.008239
      vertex 1.766292 0.000000 1.008239
      vertex 1.761204 0.000000 1.013305
    endloop
  endfacet
  facet normal 0.705581 0.000000 0.708629
    outer loop
      vertex 1.761204 0.000000 1.013305
      vertex 1.761204 -1.000000 1.013305
      vertex 1.766292 -1.000000 1.008239
    endloop
  endfacet
  facet normal 0.625637 0.000000 0.780115
    outer loop
      vertex 1.761204 -1.000000 1.013305
      vertex 1.761204 0.000000 1.013305
      vertex 1.755679 0.000000 1.017737
    endloop
  endfacet
  facet normal 0.625637 0.000000 0.780115
    outer loop
      vertex 1.755679 0.000000 1.017737
      vertex 1.755679 -1.000000 1.017737
      vertex 1.761204 -1.000000 1.013305
    endloop
  endfacet
  facet normal 0.557262 0.000000 0.830337
    outer loop
      vertex 1.755679 -1.000000 1.017737
      vertex 1.755679 0.000000 1.017737
      vertex 1.749956 0.000000 1.021577
    endloop
  endfacet
  facet normal 0.557262 0.000000 0.830337
    outer loop
      vertex 1.749956 0.000000 1.021577
      vertex 1.749956 -1.000000 1.021577
      vertex 1.755679 -1.000000 1.017737
    endloop
  endfacet
  facet normal 0.481234 0.000000 0.876592
    outer loop
      vertex 1.749956 -1.000000 1.021577
      vertex 1.749956 0.000000 1.021577
      vertex 1.744037 0.000000 1.024827
    endloop
  endfacet
  facet normal 0.481234 0.000000 0.876592
    outer loop
      vertex 1.744037 0.000000 1.024827
      vertex 1.744037 -1.000000 1.024827
      vertex 1.749956 -1.000000 1.021577
    endloop
  endfacet
  facet normal 0.398666 0.000000 0.917096
    outer loop
      vertex 1.744037 -1.000000 1.024827
      vertex 1.744037 0.000000 1.024827
      vertex 1.737920 0.000000 1.027486
    endloop
  endfacet
  facet normal 0.398666 0.000000 0.917096
    outer loop
      vertex 1.737920 0.000000 1.027486
      vertex 1.737920 -1.000000 1.027486
      vertex 1.744037 -1.000000 1.024827
    endloop
  endfacet
  facet normal 0.311282 0.000000 0.950317
    outer loop
      vertex 1.737920 -1.000000 1.027486
      vertex 1.737920 0.000000 1.027486
      vertex 1.731607 0.000000 1.029554
    endloop
  endfacet
  facet normal 0.311282 0.000000 0.950317
    outer loop
      vertex 1.731607 0.000000 1.029554
      vertex 1.731607 -1.000000 1.029554
      vertex 1.737920 -1.000000 1.027486
    endloop
  endfacet
  facet normal 0.221267 0.000000 0.975213
    outer loop
      vertex 1.731607 -1.000000 1.029554
      vertex 1.731607 0.000000 1.029554
      vertex 1.725096 0.000000 1.031031
    endloop
  endfacet
  facet normal 0.221267 0.000000 0.975213
    outer loop
      vertex 1.725096 0.000000 1.031031
      vertex 1.725096 -1.000000 1.031031
      vertex 1.731607 -1.000000 1.029554
    endloop
  endfacet
  facet normal 0.130998 0.000000 0.991383
    outer loop
      vertex 1.725096 -1.000000 1.031031
      vertex 1.725096 0.000000 1.031031
      vertex 1.718389 0.000000 1.031917
    endloop
  endfacet
  facet normal 0.130998 0.000000 0.991383
    outer loop
      vertex 1.718389 0.000000 1.031917
      vertex 1.718389 -1.000000 1.031917
      vertex 1.725096 -1.000000 1.031031
    endloop
  endfacet
  facet normal 0.042750 0.000000 0.999086
    outer loop
      vertex 1.718389 -1.000000 1.031917
      vertex 1.718389 0.000000 1.031917
      vertex 1.711485 0.000000 1.032213
    endloop
  endfacet
  facet normal 0.042750 0.000000 0.999086
    outer loop
      vertex 1.711485 0.000000 1.032213
      vertex 1.711485 -1.000000 1.032213
      vertex 1.718389 -1.000000 1.031917
    endloop
  endfacet
  facet normal 0.000000 0.000000 1.000000
    outer loop
      vertex 0.774510 0.000000 0.000000
      vertex 0.900560 0.000000 0.000000
      vertex 0.900560 0.000000 0.000000
    endloop
  endfacet
  facet normal 0.000000 0.000000 1.000000
    outer loop
      vertex 0.900560 0.000000 0.000000
      vertex 0.774510 0.000000 0.000000
      vertex 0.774510 0.000000 0.000000
    endloop
  endfacet
  facet normal 0.000000 0.000000 1.000000
    outer loop
      vertex 0.261905 0.000000 0.000000
      vertex 0.261905 0.000000 0.000000
      vertex 0.135854 0.000000 0.000000
    endloop
  endfacet
  facet normal 0.000000 0.000000 1.000000
    outer loop
      vertex 0.135854 0.000000 0.000000
      vertex 0.135854 0.000000 0.000000
      vertex 0.261905 0.000000 0.000000
    endloop
  endfacet
  facet normal 0.000000 0.000000 1.000000
    outer loop
      vertex 0.774510 0.000000 0.000000
      vertex 0.774510 0.000000 0.000000
      vertex 0.900560 0.000000 0.000000
    endloop
  endfacet
  facet normal 0.000000 0.000000 1.000000
    outer loop
      vertex 0.135854 0.000000 0.000000
      vertex 0.261905 0.000000 0.000000
      vertex 0.261905 0.000000 0.000000
    endloop
  endfacet
  facet normal 0.000000 0.000000 1.000000
    outer loop
      vertex 0.774510 0.000000 0.000000
      vertex 0.900560 0.000000 0.000000
      vertex 0.774510 0.000000 0.000000
    endloop
  endfacet
  facet normal 0.000000 0.000000 1.000000
    outer loop
      vertex 0.261905 0.000000 0.000000
      vertex 0.135854 0.000000 0.000000
      vertex 0.261905 0.000000 0.000000
    endloop
  endfacet
  facet normal 0.000000 0.000000 1.000000
    outer loop
      vertex 0.261905 0.000000 0.000000
      vertex 0.774510 0.000000 0.000000
      vertex 0.774510 0.000000 0.000000
    endloop
  endfacet
  facet normal 0.000000 0.000000 1.000000
    outer loop
      vertex 0.774510 0.000000 0.000000
      vertex 0.261905 0.000000 0.000000
      vertex 0.261905 0.000000 0.000000
    endloop
  endfacet
  facet normal 0.000000 0.000000 1.000000
    outer loop
      vertex 1.539216 0.000000 0.000000
      vertex 1.665266 0.000000 0.000000
      vertex 1.665266 0.000000 0.000000
    endloop
  endfacet
  facet normal 0.000000 0.000000 1.000000
    outer loop
      vertex 1.665266 0.000000 0.000000
      vertex 1.539216 0.000000 0.000000
      vertex 1.539216 0.000000 0.000000
    endloop
  endfacet
  facet normal 0.000000 0.000000 1.000000
    outer loop
      vertex 1.026611 0.000000 0.000000
      vertex 1.026611 0.000000 0.000000
      vertex 0.900560 0.000000 0.000000
    endloop
  endfacet
  facet normal 0.000000 0.000000 1.000000
    outer loop
      vertex 0.900560 0.000000 0.000000
      vertex 0.900560 0.000000 0.000000
      vertex 1.026611 0.000000 0.000000
    endloop
  endfacet
  facet normal 0.000000 0.000000 1.000000
    outer loop
      vertex 1.539216 0.000000 0.000000
      vertex 1.539216 0.000000 0.000000
      vertex 1.665266 0.000000 0.000000
    endloop
  endfacet
  facet normal 0.000000 0.000000 1.000000
    outer loop
      vertex 0.900560 0.000000 0.000000
      vertex 1.026611 0.000000 0.000000
      vertex 1.026611 0.000000 0.000000
    endloop
  endfacet
  facet normal 0.000000 0.000000 1.000000
    outer loop
      vertex 1.539216 0.000000 0.000000
      vertex 1.665266 0.000000 0.000000
      vertex 1.539216 0.000000 0.000000
    endloop
  endfacet
  facet normal 0.000000 0.000000 1.000000
    outer loop
      vertex 1.026611 0.000000 0.000000
      vertex 0.900560 0.000000 0.000000
      vertex 1.026611 0.000000 0.000000
    endloop
  endfacet
  facet normal 0.000000 0.000000 1.000000
    outer loop
      vertex 1.026611 0.000000 0.000000
      vertex 1.539216 0.000000 0.000000
      vertex 1.539216 0.000000 0.000000
    endloop
  endfacet
  facet normal 0.000000 0.000000 1.000000
    outer loop
      vertex 1.539216 0.000000 0.000000
      vertex 1.026611 0.000000 0.000000
      vertex 1.026611 0.000000 0.000000
    endloop
  endfacet
  facet normal 0.000000 0.000000 1.000000
    outer loop
      vertex 1.771709 0.000000 0.000000
      vertex 1.771709 0.000000 0.000000
      vertex 1.648459 0.000000 0.000000
    endloop
  endfacet
  facet normal 0.000000 0.000000 1.000000
    outer loop
      vertex 1.648459 0.000000 0.000000
      vertex 1.648459 0.000000 0.000000
      vertex 1.771709 0.000000 0.000000
    endloop
  endfacet
  facet normal 0.000000 0.000000 1.000000
    outer loop
      vertex 1.718389 0.000000 0.000000
      vertex 1.711485 0.000000 0.000000
      vertex 1.703935 0.000000 0.000000
    endloop
  endfacet
  facet normal 0.000000 0.000000 1.000000
    outer loop
      vertex 1.703935 0.000000 0.000000
      vertex 1.696691 0.000000 0.000000
      vertex 1.689754 0.000000 0.000000
    endloop
  endfacet
  facet normal 0.000000 0.000000 1.000000
    outer loop
      vertex 1.689754 0.000000 0.000000
      vertex 1.683123 0.000000 0.000000
      vertex 1.676799 0.000000 0.000000
    endloop
  endfacet
  facet normal 0.000000 0.000000 1.000000
    outer loop
      vertex 1.676799 0.000000 0.000000
      vertex 1.670781 0.000000 0.000000
      vertex 1.665069 0.000000 0.000000
    endloop
  endfacet
  facet normal 0.000000 0.000000 1.000000
    outer loop
      vertex 1.665069 0.000000 0.000000
      vertex 1.659664 0.000000 0.000000
      vertex 1.654740 0.000000 0.000000
    endloop
  endfacet
  facet normal 0.000000 0.000000 1.000000
    outer loop
      vertex 1.654740 0.000000 0.000000
      vertex 1.650473 0.000000 0.000000
      vertex 1.646862 0.000000 0.000000
    endloop
  endfacet
  facet normal 0.000000 0.000000 1.000000
    outer loop
      vertex 1.646862 0.000000 0.000000
      vertex 1.643908 0.000000 0.000000
      vertex 1.641610 0.000000 0.000000
    endloop
  endfacet
  facet normal 0.000000 0.000000 1.000000
    outer loop
      vertex 1.641610 0.000000 0.000000
      vertex 1.639968 0.000000 0.000000
      vertex 1.638984 0.000000 0.000000
    endloop
  endfacet
  facet normal 0.000000 0.000000 1.000000
    outer loop
      vertex 1.638984 0.000000 0.000000
      vertex 1.638655 0.000000 0.000000
      vertex 1.638984 0.000000 0.000000
    endloop
  endfacet
  facet normal 0.000000 0.000000 1.000000
    outer loop
      vertex 1.638984 0.000000 0.000000
      vertex 1.639968 0.000000 0.000000
      vertex 1.641610 0.000000 0.000000
    endloop
  endfacet
  facet normal 0.000000 0.000000 1.000000
    outer loop
      vertex 1.641610 0.000000 0.000000
      vertex 1.643908 0.000000 0.000000
      vertex 1.646862 0.000000 0.000000
    endloop
  endfacet
  facet normal 0.000000 0.000000 1.000000
    outer loop
      vertex 1.646862 0.000000 0.000000
      vertex 1.650473 0.000000 0.000000
      vertex 1.654740 0.000000 0.000000
    endloop
  endfacet
  facet normal 0.000000 0.000000 1.000000
    outer loop
      vertex 1.654740 0.000000 0.000000
      vertex 1.659664 0.000000 0.000000
      vertex 1.665069 0.000000 0.000000
    endloop
  endfacet
  facet normal 0.000000 0.000000 1.000000
    outer loop
      vertex 1.665069 0.000000 0.000000
      vertex 1.670781 0.000000 0.000000
      vertex 1.676799 0.000000 0.000000
    endloop
  endfacet
  facet normal 0.000000 0.000000 1.000000
    outer loop
      vertex 1.676799 0.000000 0.000000
      vertex 1.683123 0.000000 0.000000
      vertex 1.689754 0.000000 0.000000
    endloop
  endfacet
  facet normal 0.000000 0.000000 1.000000
    outer loop
      vertex 1.689754 0.000000 0.000000
      vertex 1.696691 0.000000 0.000000
      vertex 1.703935 0.000000 0.000000
    endloop
  endfacet
  facet normal 0.000000 0.000000 1.000000
    outer loop
      vertex 1.703935 0.000000 0.000000
      vertex 1.711485 0.000000 0.000000
      vertex 1.718389 0.000000 0.000000
    endloop
  endfacet
  facet normal 0.000000 0.000000 1.000000
    outer loop
      vertex 1.718389 0.000000 0.000000
      vertex 1.725096 0.000000 0.000000
      vertex 1.731607 0.000000 0.000000
    endloop
  endfacet
  facet normal 0.000000 0.000000 1.000000
    outer loop
      vertex 1.731607 0.000000 0.000000
      vertex 1.737920 0.000000 0.000000
      vertex 1.744037 0.000000 0.000000
    endloop
  endfacet
  facet normal 0.000000 0.000000 1.000000
    outer loop
      vertex 1.744037 0.000000 0.000000
      vertex 1.749956 0.000000 0.000000
      vertex 1.755679 0.000000 0.000000
    endloop
  endfacet
  facet normal 0.000000 0.000000 1.000000
    outer loop
      vertex 1.755679 0.000000 0.000000
      vertex 1.761204 0.000000 0.000000
      vertex 1.766292 0.000000 0.000000
    endloop
  endfacet
  facet normal 0.000000 0.000000 1.000000
    outer loop
      vertex 1.766292 0.000000 0.000000
      vertex 1.770702 0.000000 0.000000
      vertex 1.774433 0.000000 0.000000
    endloop
  endfacet
  facet normal 0.000000 0.000000 1.000000
    outer loop
      vertex 1.774433 0.000000 0.000000
      vertex 1.777486 0.000000 0.000000
      vertex 1.779860 0.000000 0.000000
    endloop
  endfacet
  facet normal 0.000000 0.000000 1.000000
    outer loop
      vertex 1.779860 0.000000 0.000000
      vertex 1.781556 0.000000 0.000000
      vertex 1.782574 0.000000 0.000000
    endloop
  endfacet
  facet normal 0.000000 0.000000 1.000000
    outer loop
      vertex 1.782574 0.000000 0.000000
      vertex 1.782913 0.000000 0.000000
      vertex 1.782574 0.000000 0.000000
    endloop
  endfacet
  facet normal 0.000000 0.000000 1.000000
    outer loop
      vertex 1.782574 0.000000 0.000000
      vertex 1.781556 0.000000 0.000000
      vertex 1.779860 0.000000 0.000000
    endloop
  endfacet
  facet normal 0.000000 0.000000 1.000000
    outer loop
      vertex 1.779860 0.000000 0.000000
      vertex 1.777486 0.000000 0.000000
      vertex 1.774433 0.000000 0.000000
    endloop
  endfacet
  facet normal 0.000000 0.000000 1.000000
    outer loop
      vertex 1.774433 0.000000 0.000000
      vertex 1.770702 0.000000 0.000000
      vertex 1.766292 0.000000 0.000000
    endloop
  endfacet
  facet normal 0.000000 0.000000 1.000000
    outer loop
      vertex 1.766292 0.000000 0.000000
      vertex 1.761204 0.000000 0.000000
      vertex 1.755679 0.000000 0.000000
    endloop
  endfacet
  facet normal 0.000000 0.000000 1.000000
    outer loop
      vertex 1.755679 0.000000 0.000000
      vertex 1.749956 0.000000 0.000000
      vertex 1.744037 0.000000 0.000000
    endloop
  endfacet
  facet normal 0.000000 0.000000 1.000000
    outer loop
      vertex 1.744037 0.000000 0.000000
      vertex 1.737920 0.000000 0.000000
      vertex 1.731607 0.000000 0.000000
    endloop
  endfacet
  facet normal 0.000000 0.000000 1.000000
    outer loop
      vertex 1.731607 0.000000 0.000000
      vertex 1.725096 0.000000 0.000000
      vertex 1.718389 0.000000 0.000000
    endloop
  endfacet
  facet normal 0.000000 0.000000 1.000000
    outer loop
      vertex 1.718389 0.000000 0.000000
      vertex 1.703935 0.000000 0.000000
      vertex 1.689754 0.000000 0.000000
    endloop
  endfacet
  facet normal 0.000000 0.000000 1.000000
    outer loop
      vertex 1.689754 0.000000 0.000000
      vertex 1.676799 0.000000 0.000000
      vertex 1.665069 0.000000 0.000000
    endloop
  endfacet
  facet normal 0.000000 0.000000 1.000000
    outer loop
      vertex 1.665069 0.000000 0.000000
      vertex 1.654740 0.000000 0.000000
      vertex 1.646862 0.000000 0.000000
    endloop
  endfacet
  facet normal 0.000000 0.000000 1.000000
    outer loop
      vertex 1.646862 0.000000 0.000000
      vertex 1.641610 0.000000 0.000000
      vertex 1.638984 0.000000 0.000000
    endloop
  endfacet
  facet normal 0.000000 0.000000 1.000000
    outer loop
      vertex 1.638984 0.000000 0.000000
      vertex 1.638984 0.000000 0.000000
      vertex 1.641610 0.000000 0.000000
    endloop
  endfacet
  facet normal 0.000000 0.000000 1.000000
    outer loop
      vertex 1.641610 0.000000 0.000000
      vertex 1.646862 0.000000 0.000000
      vertex 1.654740 0.000000 0.000000
    endloop
  endfacet
  facet normal 0.000000 0.000000 1.000000
    outer loop
      vertex 1.654740 0.000000 0.000000
      vertex 1.665069 0.000000 0.000000
      vertex 1.676799 0.000000 0.000000
    endloop
  endfacet
  facet normal 0.000000 0.000000 1.000000
    outer loop
      vertex 1.676799 0.000000 0.000000
      vertex 1.689754 0.000000 0.000000
      vertex 1.703935 0.000000 0.000000
    endloop
  endfacet
  facet normal 0.000000 0.000000 1.000000
    outer loop
      vertex 1.703935 0.000000 0.000000
      vertex 1.718389 0.000000 0.000000
      vertex 1.731607 0.000000 0.000000
    endloop
  endfacet
  facet normal 0.000000 0.000000 1.000000
    outer loop
      vertex 1.731607 0.000000 0.000000
      vertex 1.744037 0.000000 0.000000
      vertex 1.755679 0.000000 0.000000
    endloop
  endfacet
  facet normal 0.000000 0.000000 1.000000
    outer loop
      vertex 1.755679 0.000000 0.000000
      vertex 1.766292 0.000000 0.000000
      vertex 1.774433 0.000000 0.000000
    endloop
  endfacet
  facet normal 0.000000 0.000000 1.000000
    outer loop
      vertex 1.774433 0.000000 0.000000
      vertex 1.779860 0.000000 0.000000
      vertex 1.782574 0.000000 0.000000
    endloop
  endfacet
  facet normal 0.000000 0.000000 1.000000
    outer loop
      vertex 1.782574 0.000000 0.000000
      vertex 1.782574 0.000000 0.000000
      vertex 1.779860 0.000000 0.000000
    endloop
  endfacet
  facet normal 0.000000 0.000000 1.000000
    outer loop
      vertex 1.779860 0.000000 0.000000
      vertex 1.774433 0.000000 0.000000
      vertex 1.766292 0.000000 0.000000
    endloop
  endfacet
  facet normal 0.000000 0.000000 1.000000
    outer loop
      vertex 1.766292 0.000000 0.000000
      vertex 1.755679 0.000000 0.000000
      vertex 1.744037 0.000000 0.000000
    endloop
  endfacet
  facet normal 0.000000 0.000000 1.000000
    outer loop
      vertex 1.744037 0.000000 0.000000
      vertex 1.731607 0.000000 0.000000
      vertex 1.718389 0.000000 0.000000
    endloop
  endfacet
  facet normal 0.000000 0.000000 1.000000
    outer loop
      vertex 1.718389 0.000000 0.000000
      vertex 1.689754 0.000000 0.000000
      vertex 1.665069 0.000000 0.000000
    endloop
  endfacet
  facet normal 0.000000 0.000000 1.000000
    outer loop
      vertex 1.665069 0.000000 0.000000
      vertex 1.646862 0.000000 0.000000
      vertex 1.638984 0.000000 0.000000
    endloop
  endfacet
  facet normal 0.000000 0.000000 1.000000
    outer loop
      vertex 1.638984 0.000000 0.000000
      vertex 1.641610 0.000000 0.000000
      vertex 1.654740 0.000000 0.000000
    endloop
  endfacet
  facet normal 0.000000 0.000000 1.000000
    outer loop
      vertex 1.654740 0.000000 0.000000
      vertex 1.676799 0.000000 0.000000
      vertex 1.703935 0.000000 0.000000
    endloop
  endfacet
  facet normal 0.000000 0.000000 1.000000
    outer loop
      vertex 1.703935 0.000000 0.000000
      vertex 1.731607 0.000000 0.000000
      vertex 1.755679 0.000000 0.000000
    endloop
  endfacet
  facet normal 0.000000 0.000000 1.000000
    outer loop
      vertex 1.755679 0.000000 0.000000
      vertex 1.774433 0.000000 0.000000
      vertex 1.782574 0.000000 0.000000
    endloop
  endfacet
  facet normal 0.000000 0.000000 1.000000
    outer loop
      vertex 1.782574 0.000000 0.000000
      vertex 1.779860 0.000000 0.000000
      vertex 1.766292 0.000000 0.000000
    endloop
  endfacet
  facet normal 0.000000 0.000000 1.000000
    outer loop
      vertex 1.766292 0.000000 0.000000
      vertex 1.744037 0.000000 0.000000
      vertex 1.718389 0.000000 0.000000
    endloop
  endfacet
  facet normal 0.000000 0.000000 1.000000
    outer loop
      vertex 1.718389 0.000000 0.000000
      vertex 1.665069 0.000000 0.000000
      vertex 1.638984 0.000000 0.000000
    endloop
  endfacet
  facet normal 0.000000 0.000000 1.000000
    outer loop
      vertex 1.638984 0.000000 0.000000
      vertex 1.654740 0.000000 0.000000
      vertex 1.703935 0.000000 0.000000
    endloop
  endfacet
  facet normal 0.000000 0.000000 1.000000
    outer loop
      vertex 1.703935 0.000000 0.000000
      vertex 1.755679 0.000000 0.000000
      vertex 1.782574 0.000000 0.000000
    endloop
  endfacet
  facet normal 0.000000 0.000000 1.000000
    outer loop
      vertex 1.782574 0.000000 0.000000
      vertex 1.766292 0.000000 0.000000
      vertex 1.718389 0.000000 0.000000
    endloop
  endfacet
  facet normal 0.000000 0.000000 1.000000
    outer loop
      vertex 1.718389 0.000000 0.000000
      vertex 1.638984 0.000000 0.000000
      vertex 1.703935 0.000000 0.000000
    endloop
  endfacet
  facet normal 0.000000 0.000000 1.000000
    outer loop
      vertex 1.703935 0.000000 0.000000
      vertex 1.782574 0.000000 0.000000
      vertex 1.718389 0.000000 0.000000
    endloop
  endfacet
endsolid text_HHi_text_scale-8.131_font-NotoSans-VariableFont_wdth_wght
